<svg id="Layer_1" data-name="Layer 1" xmlns="http://www.w3.org/2000/svg" width="256" height="256" viewBox="0 0 256 256">
  <title>dynamic</title>
  <g>
    <path d="M250,128c0,25.48-3.51,48.2-9,63a74.29,74.29,0,0,1-50,50c-14.81,5.5-37.53,9-63,9s-48.2-3.52-63-9a74.31,74.31,0,0,1-50-50c-5.49-14.81-9-37.53-9-63s3.53-48.2,9-63A74.34,74.34,0,0,1,65,15c14.82-5.49,37.53-9,63-9s48.2,3.52,63,9a74.33,74.33,0,0,1,50,50C246.46,79.79,250,102.5,250,128Z" fill="#891f99"/>
    <path d="M60.81,89.21m143.92,83.1V83.67L128,39.36,51.22,83.68v88.63L128,216.62ZM118.38,56,60.81,155.69V89.21Zm19.19,0,57.56,33.24v66.46ZM128,205.39,70.41,172.31H185.54Zm60.14-42.68H67.84L128,58.56Z" fill="#fff"/>
  </g>
</svg>
