<?xml version="1.0" encoding="utf-8"?>
<!-- Generator: Adobe Illustrator 19.2.1, SVG Export Plug-In . SVG Version: 6.00 Build 0)  -->
<svg version="1.1" id="Layer_1" xmlns="http://www.w3.org/2000/svg" xmlns:xlink="http://www.w3.org/1999/xlink" x="0px" y="0px"
	 viewBox="0 0 467.3 272.7" style="enable-background:new 0 0 467.3 272.7;" xml:space="preserve">
<style type="text/css">
	.st0{fill:#A89044;}
	.st1{clip-path:url(#SVGID_2_);fill:#E23827;}
	.st2{clip-path:url(#SVGID_2_);fill-rule:evenodd;clip-rule:evenodd;fill:#005BA1;}
	.st3{fill:#005BA1;}
	.st4{font-family:'Arial-BoldItalicMT';}
	.st5{font-size:37.5207px;}
</style>
<g>
	<path class="st0" d="M52.8,146.6L52.8,146.6v3.4c-1.5,0-2.7,0.6-3.8,1.9c-1.1,1.2-1.6,2.9-1.7,5h5.5v3.4h-5.7
		c0.1,2.7,0.8,4.7,1.9,6.1c1.1,1.3,2.3,2,3.8,2.1v3.3c-2.7-0.1-4.9-1.1-6.6-3.2c-1.7-2.1-2.6-5.2-2.6-9.2c0-4.1,0.9-7.3,2.6-9.5
		C48,147.7,50.2,146.6,52.8,146.6L52.8,146.6L52.8,146.6z M31,171.1L31,171.1v-29.3h-9V138h21.6v3.9h-9v29.3H31L31,171.1L31,171.1z
		 M112.9,171.1L112.9,171.1v-24h3v3.4c0.7-1.3,1.6-2.3,2.7-3c1-0.7,2.3-1,3.6-1c1,0,2,0.2,2.9,0.6c0.9,0.4,1.6,1,2.2,1.6
		c0.6,0.7,1,1.5,1.2,2.6c0.3,1.1,0.4,2.7,0.4,4.9v14.8h-3.4v-14.6c0-1.8-0.1-3.1-0.5-3.9c-0.3-0.8-0.8-1.4-1.4-1.9
		c-0.6-0.4-1.4-0.7-2.2-0.7c-1.6,0-2.9,0.6-3.8,1.8c-1,1.2-1.4,3.2-1.4,6.1v13.1H112.9L112.9,171.1L112.9,171.1z M89.5,171.1
		L89.5,171.1V138h3.3v11.9c0.8-1.1,1.7-1.9,2.7-2.5c1-0.5,2.1-0.8,3.3-0.8c2.1,0,3.7,0.7,5,2c1.2,1.3,1.8,3.8,1.8,7.3v15.2h-3.3
		v-15.2c0-2.1-0.4-3.6-1.1-4.5c-0.7-0.9-1.8-1.4-3-1.4c-1.5,0-2.7,0.6-3.7,1.7c-1,1.2-1.5,3.2-1.5,6.2v13.1H89.5L89.5,171.1
		L89.5,171.1z M81.1,162.3L81.1,162.3l3.3,0.5c-0.4,2.9-1.3,5-2.8,6.6c-1.5,1.5-3.3,2.3-5.5,2.3c-2.6,0-4.7-1.1-6.4-3.2
		c-1.7-2.1-2.5-5.3-2.5-9.4c0-4.2,0.8-7.3,2.5-9.4c1.7-2.1,3.8-3.1,6.5-3.1c2,0,3.8,0.6,5.2,1.9c1.4,1.3,2.3,3.2,2.7,5.7l-3.2,0.6
		c-0.3-1.6-0.9-2.9-1.7-3.7c-0.8-0.8-1.7-1.2-2.8-1.2c-1.6,0-3,0.7-4.1,2.2c-1.1,1.5-1.6,3.8-1.6,6.9c0,3.3,0.5,5.6,1.6,7.1
		c1,1.5,2.4,2.2,4,2.2c1.3,0,2.3-0.5,3.2-1.5C80.3,165.9,80.9,164.4,81.1,162.3L81.1,162.3L81.1,162.3z M52.8,160.2L52.8,160.2v-3.4
		h5.5c-0.1-2.1-0.6-3.6-1.3-4.7c-1.1-1.5-2.4-2.2-4.1-2.2h-0.1v-3.4l0.1,0c2.5,0,4.7,1.1,6.4,3.2c1.7,2.1,2.6,5.2,2.6,9.3l0,1.1
		H52.8L52.8,160.2L52.8,160.2z M52.8,171.7L52.8,171.7v-3.3c0.1,0,0.2,0,0.2,0c2.5,0,4.2-1.6,5.2-4.9l3.4,0.5
		c-0.6,2.6-1.6,4.5-3.1,5.8c-1.5,1.3-3.4,2-5.6,2C53,171.7,52.9,171.7,52.8,171.7L52.8,171.7L52.8,171.7z M144.3,146.6L144.3,146.6
		v3.4l-0.1,0c-1.6,0-2.9,0.8-4.1,2.3c-1.1,1.5-1.7,3.8-1.7,6.9c0,3.1,0.6,5.4,1.7,6.9c1.1,1.5,2.5,2.3,4.1,2.3v3.3
		c-2.6,0-4.8-1.1-6.6-3.2c-1.8-2.1-2.6-5.3-2.6-9.4c0-4.1,0.9-7.3,2.6-9.4C139.4,147.6,141.6,146.6,144.3,146.6L144.3,146.6
		L144.3,146.6z M159.6,171.1L159.6,171.1V138h3.3v33.2H159.6L159.6,171.1L159.6,171.1z M144.3,171.7L144.3,171.7v-3.3l0.1,0
		c1.6,0,2.9-0.8,4-2.3c1.1-1.5,1.7-3.8,1.7-6.9c0-3.1-0.6-5.4-1.7-6.9c-1.1-1.5-2.5-2.2-4.1-2.3v-3.4l0,0c2.6,0,4.8,1.1,6.6,3.2
		c1.8,2.1,2.6,5.2,2.6,9.1c0,4.3-0.9,7.5-2.6,9.6C149.2,170.6,147,171.7,144.3,171.7L144.3,171.7L144.3,171.7L144.3,171.7z
		 M178.4,146.6L178.4,146.6v3.4l-0.1,0c-1.6,0-2.9,0.8-4.1,2.3c-1.1,1.5-1.7,3.8-1.7,6.9c0,3.1,0.6,5.4,1.7,6.9
		c1.1,1.5,2.5,2.3,4.1,2.3v3.3c-2.6,0-4.8-1.1-6.6-3.2c-1.8-2.1-2.6-5.3-2.6-9.4c0-4.1,0.9-7.3,2.6-9.4
		C173.5,147.6,175.7,146.6,178.4,146.6L178.4,146.6L178.4,146.6z M178.4,171.7L178.4,171.7v-3.3l0.1,0c1.6,0,2.9-0.8,4-2.3
		c1.1-1.5,1.7-3.8,1.7-6.9c0-3.1-0.6-5.4-1.7-6.9c-1.1-1.5-2.5-2.2-4.1-2.3v-3.4h0c2.6,0,4.8,1.1,6.6,3.2c1.8,2.1,2.6,5.2,2.6,9.1
		c0,4.3-0.9,7.5-2.6,9.6C183.3,170.6,181.1,171.7,178.4,171.7L178.4,171.7L178.4,171.7L178.4,171.7z M201.4,177.5L201.4,177.5v3.4
		c-0.1,0-0.2,0-0.3,0c-2.5,0-4.5-0.7-5.9-2.1c-1.4-1.4-2-3.3-2-5.7l3.3,0.6c0.2,1.3,0.6,2.2,1.4,2.9c0.8,0.6,1.8,0.9,3.1,0.9
		C201.1,177.5,201.3,177.5,201.4,177.5L201.4,177.5L201.4,177.5z M201.4,146.6L201.4,146.6v3.4c-0.1,0-0.1,0-0.2,0
		c-1.4,0-2.6,0.7-3.7,2.2c-1,1.5-1.6,3.7-1.6,6.5c0,3.2,0.5,5.5,1.6,6.9c1,1.5,2.3,2.2,3.8,2.2h0v3.4c-0.1,0-0.2,0-0.3,0
		c-2.4,0-4.3-1-5.9-3c-1.8-2.3-2.7-5.4-2.7-9.2c0-2.6,0.4-4.8,1.2-6.8c0.8-1.9,1.8-3.4,3.1-4.3c1.3-0.9,2.7-1.4,4.3-1.4
		C201.2,146.6,201.3,146.6,201.4,146.6L201.4,146.6L201.4,146.6z M217.2,171.1L217.2,171.1v-24h3.3v24H217.2L217.2,171.1
		L217.2,171.1z M217.2,142.7L217.2,142.7V138h3.3v4.7H217.2L217.2,142.7L217.2,142.7z M201.4,180.9L201.4,180.9v-3.4
		c1.3-0.1,2.3-0.4,3.1-1c0.9-0.7,1.5-1.7,1.8-3.1c0.2-0.8,0.3-2.6,0.3-5.3c-0.7,1-1.5,1.8-2.4,2.3c-0.8,0.5-1.7,0.7-2.7,0.8v-3.4
		c1.5,0,2.8-0.7,3.8-2.1c1.1-1.4,1.6-3.7,1.6-6.8c0-3-0.5-5.3-1.6-6.7c-1-1.4-2.3-2.1-3.8-2.2v-3.4c1,0,2,0.3,2.9,0.9
		c1,0.6,1.8,1.4,2.5,2.6v-2.9h3.1v20.8c0,3.7-0.3,6.3-0.9,7.9c-0.6,1.6-1.6,2.8-3,3.7C204.7,180.4,203.2,180.8,201.4,180.9
		L201.4,180.9L201.4,180.9z M236,146.6L236,146.6v3.4c-1.5,0-2.7,0.6-3.8,1.9c-1.1,1.2-1.6,2.9-1.7,5h5.5v3.4h-5.7
		c0.1,2.7,0.8,4.7,1.9,6.1c1.1,1.3,2.3,2,3.8,2.1v3.3c-2.7-0.1-4.9-1.1-6.6-3.2c-1.7-2.1-2.6-5.2-2.6-9.2c0-4.1,0.9-7.3,2.6-9.5
		C231.2,147.7,233.3,146.6,236,146.6L236,146.6L236,146.6z M250.1,164L250.1,164l3.3-0.6c0.2,1.7,0.7,2.9,1.6,3.8
		c0.9,0.8,2,1.2,3.5,1.2c1.5,0,2.6-0.4,3.4-1.1c0.8-0.7,1.2-1.6,1.2-2.7c0-1-0.3-1.7-1-2.2c-0.5-0.4-1.6-0.8-3.4-1.4
		c-2.6-0.8-4.3-1.5-5.2-2c-0.9-0.6-1.6-1.3-2-2.2c-0.5-0.9-0.7-2-0.7-3.2c0-2.1,0.7-3.7,2-5c1.3-1.3,3.1-1.9,5.5-1.9
		c1.5,0,2.7,0.3,3.9,0.8c1.1,0.5,2,1.2,2.5,2.1c0.6,0.9,1,2.2,1.2,3.8l-3.3,0.5c-0.3-2.6-1.7-3.9-4.3-3.9c-1.4,0-2.5,0.3-3.2,0.9
		c-0.7,0.6-1.1,1.3-1.1,2.2c0,0.9,0.3,1.6,1,2.1c0.4,0.3,1.6,0.8,3.6,1.4c2.8,0.9,4.5,1.6,5.4,2.1c0.8,0.5,1.4,1.2,1.9,2.1
		c0.4,0.9,0.7,2,0.7,3.2c0,2.3-0.7,4.1-2.2,5.6c-1.5,1.4-3.4,2.1-6,2.1C253.6,171.7,250.9,169.1,250.1,164L250.1,164L250.1,164z
		 M236,160.2L236,160.2v-3.4h5.5c-0.1-2.1-0.6-3.6-1.3-4.7c-1.1-1.5-2.4-2.2-4.1-2.2H236v-3.4l0.1,0c2.5,0,4.7,1.1,6.4,3.2
		c1.7,2.1,2.6,5.2,2.6,9.3l0,1.1H236L236,160.2L236,160.2z M236,171.7v-3.3c0.1,0,0.2,0,0.2,0c2.5,0,4.2-1.6,5.2-4.9l3.4,0.5
		c-0.6,2.6-1.6,4.5-3.1,5.8c-1.5,1.3-3.4,2-5.6,2C236.1,171.7,236,171.7,236,171.7L236,171.7L236,171.7z"/>
	<g>
		<defs>
			<polygon id="SVGID_1_" points="0.7,6.7 454.6,6.7 454.6,231.9 0.7,231.9 0.7,6.7 			"/>
		</defs>
		<clipPath id="SVGID_2_">
			<use xlink:href="#SVGID_1_"  style="overflow:visible;"/>
		</clipPath>
		<path class="st1" d="M81.7,96.5L81.7,96.5l-9.9,21.3h9.9V96.5L81.7,96.5L81.7,96.5z M2.2,35.6L2.2,35.6h28.2l14.1,27.7l19.1-27.7
			h18.1v13.1L55.3,83.4l-3.1,34.4H26.8l3.1-34.4L2.2,35.6L2.2,35.6L2.2,35.6z M119,35.6L119,35.6h-9L81.7,96.5v21.3h16l5.2-13.6H119
			V86.5H110l9.1-22.9V35.6L119,35.6L119,35.6z M81.7,35.6L81.7,35.6h9.9l-9.9,13.1V35.6L81.7,35.6L81.7,35.6z M256.7,35.6
			L256.7,35.6h25.4l-2.6,28.8h27.8l2.6-28.8h25.5l-7.4,82.2h-25.5l3-33.2h-27.8l-3,33.2h-25.4L256.7,35.6L256.7,35.6L256.7,35.6z
			 M165.8,90.6L165.8,90.6l24.3-1.5c0.2,3.9,1,6.9,2.4,9c2.3,3.3,5.9,5,10.8,5c3.6,0,6.5-0.8,8.6-2.5c2.1-1.7,3.3-3.7,3.5-5.9
			c0.2-2.1-0.6-4-2.3-5.7c-1.7-1.7-5.9-3.3-12.6-4.8c-10.9-2.5-18.6-5.8-22.9-10c-4.4-4.2-6.3-9.4-5.8-15.9c0.4-4.2,2-8.2,4.7-12
			c2.8-3.8,6.7-6.7,11.8-8.9c5.1-2.1,11.9-3.2,20.5-3.2c10.5,0,18.3,2,23.5,5.9c5.2,3.9,7.9,10.1,8.2,18.6l-24.1,1.4
			c-0.3-3.7-1.4-6.4-3.3-8.1c-1.9-1.7-4.6-2.5-8.2-2.5c-3,0-5.2,0.6-6.8,1.9c-1.6,1.2-2.5,2.8-2.6,4.6c-0.1,1.3,0.4,2.5,1.5,3.5
			c1.1,1.1,3.9,2.1,8.3,3c10.9,2.4,18.6,4.8,23.2,7.3c4.6,2.4,7.8,5.5,9.7,9.1c1.9,3.6,2.6,7.7,2.2,12.2c-0.5,5.3-2.4,10.1-5.7,14.6
			c-3.3,4.5-7.7,7.8-13.1,10.1c-5.4,2.3-12.1,3.4-20.1,3.4c-14,0-23.4-2.7-28.3-8.1C168.2,105.8,165.8,98.9,165.8,90.6L165.8,90.6
			L165.8,90.6z M119,104.2V86.5h9.1l-6.4-29.5l-2.6,6.6V35.6h18.7l23.5,82.2h-26.6l-2.8-13.6H119L119,104.2L119,104.2z"/>
		<path class="st2" d="M262.9,18.8c55.1,1.4,124.4,12.6,128,51.2c6.7,70.4-168.8,130.9-269.2,152c92.4-12.7,194-39.2,274.5-88.7
			c35.5-21.8,65.5-55.9,46.9-82.3C414.7,10.5,305.4,16.4,262.9,18.8L262.9,18.8L262.9,18.8z"/>
	</g>
	<polygon class="st3" points="17.7,263.4 12.5,263.4 11.5,240.9 7.2,263.4 2.2,263.4 7.9,236.5 15.7,236.5 16.6,255.3 25.7,236.5 
		33.7,236.5 28.1,263.4 23,263.4 28.3,241.1 17.7,263.4 	"/>
	<path class="st3" d="M48.9,251.6c0-1.2-0.4-2.2-1.1-3c-0.7-0.8-1.7-1.1-2.8-1.1c-1.1,0-2.1,0.4-3,1.1c-0.9,0.7-1.6,1.7-2.1,3.1
		c-0.5,1.3-0.7,2.6-0.7,3.7c0,1.4,0.4,2.5,1.1,3.3c0.8,0.8,1.7,1.2,2.9,1.2c1.4,0,2.7-0.6,3.6-1.9C48.2,256.2,48.9,254.1,48.9,251.6
		L48.9,251.6z M33.9,255.3c0-3.6,1-6.5,3.1-8.6c2-2.1,4.7-3.2,8-3.2c2.9,0,5.1,0.8,6.7,2.4c1.6,1.6,2.4,3.7,2.4,6.4
		c0,3.2-1,5.9-3,8.2c-2,2.3-4.7,3.4-8.1,3.4c-1.8,0-3.5-0.4-4.9-1.1c-1.4-0.7-2.5-1.8-3.2-3.1C34.2,258.3,33.9,256.8,33.9,255.3
		L33.9,255.3z"/>
	<path class="st3" d="M59.4,243.9h4.9l-0.8,3.8c1.8-2.8,3.8-4.2,6-4.2c0.8,0,1.6,0.2,2.4,0.6l-2,4.3c-0.5-0.2-1-0.3-1.5-0.3
		c-0.9,0-1.8,0.3-2.8,1c-0.9,0.7-1.7,1.6-2.2,2.7c-0.5,1.1-1,3-1.6,5.4l-1.3,6.1h-5.3L59.4,243.9L59.4,243.9z"/>
	<path class="st3" d="M84.4,252.1c0-0.2,0-0.4,0-0.5c0-1.4-0.3-2.5-1-3.2c-0.6-0.7-1.5-1.1-2.6-1.1c-1.1,0-2.1,0.4-2.9,1.2
		c-0.9,0.8-1.4,2-1.7,3.6H84.4L84.4,252.1z M88.8,255.3H75.6c0,0.2,0,0.4,0,0.5c0,1.3,0.4,2.3,1.1,3.1c0.7,0.8,1.6,1.2,2.7,1.2
		c1.7,0,3.1-0.9,4.1-2.7l4.7,0.8c-0.9,1.9-2.1,3.3-3.7,4.3c-1.5,0.9-3.3,1.4-5.2,1.4c-2.6,0-4.7-0.8-6.4-2.5
		c-1.6-1.7-2.5-3.8-2.5-6.6c0-2.7,0.7-5,2.2-7.1c2-2.8,4.9-4.2,8.6-4.2c2.4,0,4.3,0.7,5.7,2.2c1.4,1.5,2.1,3.5,2.1,6.2
		C89.2,253.1,89.1,254.3,88.8,255.3L88.8,255.3z"/>
	<path class="st3" d="M101.7,247.8l0.8-3.9h2.6l0.6-3.1l6-3.6l-1.4,6.7h3.2l-0.8,3.9h-3.2l-1.7,8.2c-0.3,1.5-0.5,2.3-0.5,2.5
		c0,0.4,0.1,0.7,0.4,0.9c0.3,0.2,0.7,0.3,1.4,0.3c0.2,0,0.8,0,1.7-0.1l-0.8,3.9c-0.9,0.2-1.8,0.3-2.8,0.3c-1.9,0-3.2-0.4-4-1.1
		c-0.8-0.7-1.3-1.7-1.3-3c0-0.6,0.2-2,0.7-4.1l1.6-7.8H101.7L101.7,247.8z"/>
	<path class="st3" d="M117.9,263.4h-5.3l5.6-26.9h5.3l-2,9.6c1.2-0.9,2.3-1.6,3.3-2c1-0.4,2.1-0.6,3.3-0.6c1.6,0,2.8,0.5,3.7,1.4
		c0.9,0.9,1.4,2.1,1.4,3.6c0,0.8-0.2,2-0.5,3.6l-2.4,11.4h-5.3l2.4-11.6c0.3-1.3,0.4-2.1,0.4-2.4c0-0.6-0.2-1.2-0.6-1.6
		c-0.4-0.4-1-0.6-1.6-0.6c-0.9,0-1.7,0.3-2.5,0.9c-1.1,0.8-1.8,1.8-2.4,3c-0.3,0.6-0.7,2.2-1.2,4.6L117.9,263.4L117.9,263.4z"/>
	<path class="st3" d="M147.5,254.3c-0.3,0.1-0.7,0.2-1.3,0.2c-2.6,0.3-4.4,0.8-5.2,1.4c-0.6,0.4-0.9,1-0.9,1.8
		c0,0.6,0.2,1.1,0.7,1.6c0.4,0.4,1,0.6,1.7,0.6c0.8,0,1.5-0.2,2.2-0.6c0.7-0.4,1.2-0.9,1.6-1.5c0.3-0.6,0.7-1.5,0.9-2.8L147.5,254.3
		L147.5,254.3z M142.5,249.4l-5.1-0.4c0.6-1.7,1.6-3.1,3.1-4.1c1.5-1,3.4-1.5,5.8-1.5c2.5,0,4.4,0.5,5.6,1.5c1.2,1,1.8,2.2,1.8,3.7
		c0,0.6-0.1,1.2-0.2,1.9c-0.1,0.7-0.5,2.4-1.1,5.2c-0.5,2.3-0.8,3.9-0.8,4.9c0,0.8,0.1,1.8,0.4,2.8h-5.1c-0.2-0.7-0.3-1.4-0.4-2.2
		c-0.8,0.9-1.7,1.5-2.7,2c-1,0.5-2,0.7-3,0.7c-1.6,0-2.9-0.5-4-1.6c-1.1-1.1-1.6-2.4-1.6-4.1c0-1.9,0.6-3.3,1.7-4.5
		c1.2-1.1,3.2-1.8,6.2-2c2.5-0.2,4.2-0.5,5-0.8c0.2-0.7,0.3-1.3,0.3-1.8c0-0.6-0.2-1-0.7-1.4c-0.5-0.4-1.1-0.6-2-0.6
		c-0.9,0-1.7,0.2-2.2,0.6C143.1,248.2,142.7,248.7,142.5,249.4L142.5,249.4z"/>
	<path class="st3" d="M159.7,243.9h5l-0.5,2.5c1.2-1.1,2.4-1.8,3.5-2.3c1.1-0.5,2.2-0.7,3.4-0.7c1.6,0,2.9,0.5,3.8,1.4
		c0.9,0.9,1.4,2.1,1.4,3.6c0,0.7-0.2,2-0.6,3.9l-2.3,11h-5.3l2.3-11c0.3-1.6,0.5-2.6,0.5-2.9c0-0.7-0.2-1.2-0.6-1.6
		c-0.4-0.4-0.9-0.6-1.7-0.6c-0.8,0-1.6,0.3-2.6,1c-0.9,0.6-1.7,1.5-2.2,2.6c-0.4,0.8-0.8,2.3-1.3,4.6l-1.7,8h-5.3L159.7,243.9
		L159.7,243.9z"/>
	<polygon class="st3" points="208.5,263.4 203.6,263.4 202.6,251 196.7,263.4 191.8,263.4 189.4,243.9 194,243.9 195.4,257 
		201.5,243.9 206.2,243.9 206.9,257 212.9,243.9 218.2,243.9 208.5,263.4 	"/>
	<path class="st3" d="M222.3,263.4h-5.3l5.6-26.9h5.3l-2,9.6c1.2-0.9,2.3-1.6,3.3-2c1-0.4,2.1-0.6,3.3-0.6c1.6,0,2.8,0.5,3.7,1.4
		c0.9,0.9,1.4,2.1,1.4,3.6c0,0.8-0.2,2-0.5,3.6l-2.4,11.4h-5.3l2.4-11.6c0.3-1.3,0.4-2.1,0.4-2.4c0-0.6-0.2-1.2-0.6-1.6
		c-0.4-0.4-1-0.6-1.6-0.6c-0.9,0-1.7,0.3-2.5,0.9c-1,0.8-1.9,1.8-2.4,3c-0.3,0.6-0.7,2.2-1.2,4.6L222.3,263.4L222.3,263.4z"/>
	<path class="st3" d="M251.9,254.3c-0.3,0.1-0.7,0.2-1.3,0.2c-2.6,0.3-4.4,0.8-5.2,1.4c-0.6,0.4-0.9,1-0.9,1.8
		c0,0.6,0.2,1.1,0.7,1.6c0.4,0.4,1,0.6,1.7,0.6c0.8,0,1.5-0.2,2.2-0.6c0.7-0.4,1.2-0.9,1.6-1.5c0.3-0.6,0.7-1.5,0.9-2.8L251.9,254.3
		L251.9,254.3z M246.9,249.4l-5.1-0.4c0.6-1.7,1.6-3.1,3.1-4.1c1.5-1,3.4-1.5,5.8-1.5c2.5,0,4.4,0.5,5.6,1.5c1.2,1,1.8,2.2,1.8,3.7
		c0,0.6-0.1,1.2-0.2,1.9c-0.1,0.7-0.5,2.4-1.1,5.2c-0.5,2.3-0.8,3.9-0.8,4.9c0,0.8,0.1,1.8,0.4,2.8h-5.1c-0.2-0.7-0.3-1.4-0.4-2.2
		c-0.8,0.9-1.7,1.5-2.7,2c-1,0.5-2,0.7-3,0.7c-1.6,0-2.9-0.5-4-1.6c-1-1.1-1.6-2.4-1.6-4.1c0-1.9,0.6-3.3,1.7-4.5
		c1.2-1.1,3.2-1.8,6.2-2c2.5-0.2,4.2-0.5,5-0.8c0.2-0.7,0.3-1.3,0.3-1.8c0-0.6-0.2-1-0.7-1.4c-0.5-0.4-1.1-0.6-2-0.6
		c-0.9,0-1.7,0.2-2.2,0.6C247.5,248.2,247.1,248.7,246.9,249.4L246.9,249.4z"/>
	<path class="st3" d="M261.3,247.8l0.8-3.9h2.6l0.6-3.1l6-3.6l-1.4,6.7h3.2l-0.8,3.9h-3.2l-1.7,8.2c-0.3,1.5-0.5,2.3-0.5,2.5
		c0,0.4,0.1,0.7,0.4,0.9c0.3,0.2,0.7,0.3,1.4,0.3c0.2,0,0.8,0,1.7-0.1l-0.8,3.9c-0.9,0.2-1.8,0.3-2.8,0.3c-1.9,0-3.2-0.4-4-1.1
		c-0.8-0.7-1.3-1.7-1.3-3c0-0.6,0.2-2,0.7-4.1l1.6-7.8H261.3L261.3,247.8z"/>
	<path class="st3" d="M283.8,243.9h5.2l1.3,9.7c0.3,2.5,0.5,4.2,0.5,5.2c0.7-2,1.6-4.1,2.8-6.3l4.7-8.6h5.6l-12,21.4
		c-1,1.8-1.8,3-2.3,3.7c-0.6,0.7-1.3,1.3-2,1.7c-0.8,0.4-1.8,0.6-2.9,0.6c-1.1,0-2.4-0.2-3.8-0.6l0.5-3.9c0.6,0.2,1.3,0.3,1.9,0.3
		c1.6,0,2.9-1.2,4-3.7L283.8,243.9L283.8,243.9z"/>
	<path class="st3" d="M318.4,251.6c0-1.2-0.4-2.2-1.1-3c-0.7-0.8-1.7-1.1-2.8-1.1c-1.1,0-2.1,0.4-3,1.1c-0.9,0.7-1.6,1.7-2.1,3.1
		s-0.7,2.6-0.7,3.7c0,1.4,0.4,2.5,1.1,3.3c0.8,0.8,1.7,1.2,2.9,1.2c1.4,0,2.7-0.6,3.6-1.9C317.7,256.2,318.4,254.1,318.4,251.6
		L318.4,251.6z M303.4,255.3c0-3.6,1-6.5,3-8.6c2-2.1,4.7-3.2,8-3.2c2.9,0,5.1,0.8,6.7,2.4c1.6,1.6,2.4,3.7,2.4,6.4
		c0,3.2-1,5.9-3,8.2s-4.7,3.4-8.1,3.4c-1.8,0-3.5-0.4-4.9-1.1c-1.4-0.7-2.5-1.8-3.2-3.1C303.8,258.3,303.4,256.8,303.4,255.3
		L303.4,255.3z"/>
	<path class="st3" d="M329.2,243.9h5.3l-2.4,11.5c-0.3,1.4-0.4,2.2-0.4,2.6c0,0.6,0.2,1,0.6,1.4c0.4,0.4,0.9,0.6,1.6,0.6
		c0.5,0,0.9-0.1,1.4-0.3c0.5-0.2,0.9-0.4,1.4-0.8c0.5-0.4,0.9-0.8,1.3-1.2c0.4-0.5,0.7-1.1,1.1-1.8c0.2-0.6,0.5-1.5,0.8-2.7l1.9-9.3
		h5.3l-4.1,19.5H338l0.5-2.6c-2.1,2.1-4.5,3.1-7,3.1c-1.6,0-2.9-0.5-3.8-1.4c-0.9-0.9-1.4-2.1-1.4-3.7c0-0.7,0.2-2,0.6-4
		L329.2,243.9L329.2,243.9z"/>
	<path class="st3" d="M359.1,247.8l0.8-3.9h2.6l0.6-3.1l6-3.6l-1.4,6.7h3.2l-0.8,3.9h-3.2l-1.7,8.2c-0.3,1.5-0.5,2.3-0.5,2.5
		c0,0.4,0.1,0.7,0.4,0.9c0.3,0.2,0.7,0.3,1.4,0.3c0.2,0,0.8,0,1.7-0.1l-0.8,3.9c-0.9,0.2-1.8,0.3-2.8,0.3c-1.9,0-3.2-0.4-4-1.1
		c-0.8-0.7-1.3-1.7-1.3-3c0-0.6,0.2-2,0.7-4.1l1.6-7.8H359.1L359.1,247.8z"/>
	<path class="st3" d="M375.3,263.4H370l5.6-26.9h5.3l-2,9.6c1.2-0.9,2.3-1.6,3.3-2c1-0.4,2.1-0.6,3.3-0.6c1.6,0,2.8,0.5,3.7,1.4
		c0.9,0.9,1.4,2.1,1.4,3.6c0,0.8-0.2,2-0.5,3.6l-2.4,11.4h-5.3l2.4-11.6c0.3-1.3,0.4-2.1,0.4-2.4c0-0.6-0.2-1.2-0.6-1.6
		c-0.4-0.4-1-0.6-1.6-0.6c-0.9,0-1.7,0.3-2.5,0.9c-1,0.8-1.8,1.8-2.4,3c-0.3,0.6-0.7,2.2-1.2,4.6L375.3,263.4L375.3,263.4z"/>
	<path class="st3" d="M398.1,236.5h5.3l-1,4.8h-5.3L398.1,236.5L398.1,236.5z M396.5,243.9h5.3l-4.1,19.5h-5.3L396.5,243.9
		L396.5,243.9z"/>
	<path class="st3" d="M406.7,243.9h5l-0.5,2.5c1.2-1.1,2.4-1.8,3.5-2.3c1.1-0.5,2.2-0.7,3.4-0.7c1.6,0,2.9,0.5,3.8,1.4
		c0.9,0.9,1.4,2.1,1.4,3.6c0,0.7-0.2,2-0.6,3.9l-2.3,11h-5.3l2.3-11c0.3-1.6,0.5-2.6,0.5-2.9c0-0.7-0.2-1.2-0.6-1.6
		c-0.4-0.4-0.9-0.6-1.7-0.6c-0.8,0-1.6,0.3-2.6,1c-0.9,0.6-1.7,1.5-2.2,2.6c-0.4,0.8-0.8,2.3-1.3,4.6l-1.7,8h-5.3L406.7,243.9
		L406.7,243.9z"/>
	<polygon class="st3" points="425,263.4 430.6,236.5 435.9,236.5 432.9,250.5 439.8,243.9 446.6,243.9 438.8,251 442.9,263.4 
		437.7,263.4 435,254.4 431.5,257.5 430.2,263.4 425,263.4 	"/>
	<text transform="matrix(1 0 0 1 444.0716 263.3913)" class="st3 st4 st5">.</text>
	<path d="M430.8,13.4l2-0.2c0.1,0.8,0.3,1.4,0.6,1.9c0.3,0.5,0.9,0.9,1.6,1.2c0.7,0.3,1.5,0.5,2.4,0.5c0.8,0,1.5-0.1,2.1-0.4
		c0.6-0.2,1.1-0.6,1.4-1c0.3-0.4,0.4-0.9,0.4-1.3c0-0.5-0.1-0.9-0.4-1.3c-0.3-0.4-0.8-0.7-1.4-0.9c-0.4-0.2-1.4-0.4-2.8-0.8
		c-1.4-0.3-2.5-0.7-3-1c-0.8-0.4-1.3-0.9-1.7-1.5c-0.4-0.6-0.6-1.2-0.6-2c0-0.8,0.2-1.5,0.7-2.2c0.5-0.7,1.1-1.2,2-1.6
		c0.9-0.4,1.8-0.5,2.9-0.5c1.2,0,2.2,0.2,3.1,0.6c0.9,0.4,1.6,0.9,2.1,1.7c0.5,0.7,0.7,1.6,0.8,2.5l-2,0.2c-0.1-1-0.5-1.7-1.1-2.3
		c-0.6-0.5-1.5-0.8-2.7-0.8c-1.3,0-2.2,0.2-2.7,0.7c-0.6,0.5-0.9,1-0.9,1.7c0,0.6,0.2,1,0.6,1.4c0.4,0.4,1.4,0.7,3.1,1.1
		c1.7,0.4,2.8,0.7,3.5,1c0.9,0.4,1.6,1,2,1.6c0.4,0.6,0.7,1.4,0.7,2.2c0,0.8-0.2,1.6-0.7,2.4c-0.5,0.7-1.2,1.3-2.1,1.7
		c-0.9,0.4-1.9,0.6-3,0.6c-1.4,0-2.6-0.2-3.6-0.6c-1-0.4-1.7-1-2.3-1.9C431.1,15.4,430.8,14.4,430.8,13.4L430.8,13.4z"/>
	<path d="M446.1,18.4V2.7h3.1l3.7,11.1c0.3,1,0.6,1.8,0.8,2.3c0.2-0.6,0.5-1.4,0.8-2.5l3.8-10.9h2.8v15.7h-2V5.3l-4.6,13.2h-1.9
		l-4.5-13.4v13.4H446.1L446.1,18.4z"/>
</g>
</svg>
