<?xml version="1.0" encoding="UTF-8" standalone="no"?>
<!DOCTYPE svg PUBLIC "-//W3C//DTD SVG 1.1//EN" "http://www.w3.org/Graphics/SVG/1.1/DTD/svg11.dtd">
<!-- Generated by Microsoft Visio, SVG Export diagram.svg Page-1 -->
<svg xmlns="http://www.w3.org/2000/svg" xmlns:xlink="http://www.w3.org/1999/xlink" xmlns:ev="http://www.w3.org/2001/xml-events"
		xmlns:v="http://schemas.microsoft.com/visio/2003/SVGExtensions/" width="5.07097in" height="3.1239in"
		viewBox="0 0 365.11 224.921" xml:space="preserve" color-interpolation-filters="sRGB" class="st20">
	<v:documentProperties v:langID="9225" v:viewMarkup="false"/>

	<style type="text/css">
	<![CDATA[
		.st1 {fill:#0078d7}
		.st2 {stroke:none;stroke-linecap:butt;stroke-width:0.75}
		.st3 {fill:#0078d7;font-family:Segoe UI;font-size:0.75em}
		.st4 {font-size:1em}
		.st5 {fill:none;stroke:#0078d7;stroke-dasharray:0,3.3;stroke-linecap:round;stroke-linejoin:round;stroke-width:1.1}
		.st6 {fill:#0078d7;stroke:none;stroke-linecap:butt;stroke-width:0.6375}
		.st7 {stroke:#0078d7;stroke-linecap:round;stroke-linejoin:round;stroke-width:2.25}
		.st8 {fill:#ffffff;stroke:none;stroke-linecap:butt;stroke-width:7.2}
		.st9 {visibility:visible}
		.st10 {fill:none;filter:url(#filter_2.6666667461395);stroke:#000000;stroke-linecap:round;stroke-linejoin:round;stroke-opacity:0.4}
		.st11 {fill:none;stroke:#00b0f0;stroke-linecap:round;stroke-linejoin:round;stroke-width:2.25}
		.st12 {marker-end:url(#mrkr13-63);stroke:#000000;stroke-linecap:round;stroke-linejoin:round;stroke-width:0.75}
		.st13 {fill:#000000;fill-opacity:1;stroke:#000000;stroke-opacity:1;stroke-width:0.22935779816514}
		.st14 {fill:#000000;font-family:Calibri;font-size:0.666664em}
		.st15 {fill:#0078d7;stroke:none;stroke-linecap:butt;stroke-width:0.5}
		.st16 {fill:none;stroke:none;stroke-linecap:round;stroke-linejoin:round;stroke-width:0.75}
		.st17 {fill:#0070c0;font-family:Calibri;font-size:1.00001em}
		.st18 {fill:#0078d7;stroke:none;stroke-linecap:round;stroke-linejoin:round;stroke-width:0.75}
		.st19 {fill:none;stroke:none;stroke-linecap:butt;stroke-width:0.75}
		.st20 {fill:none;fill-rule:evenodd;font-size:12px;overflow:visible;stroke-linecap:square;stroke-miterlimit:3}
	]]>
	</style>

	<defs id="Markers">
		<g id="lend13">
			<path d="M 3 1 L 0 0 L 3 -1 L 3 1 " style="stroke:none"/>
		</g>
		<marker id="mrkr13-63" class="st13" v:arrowType="13" v:arrowSize="2" v:setback="13.08" refX="-13.08" orient="auto"
				markerUnits="strokeWidth" overflow="visible">
			<use xlink:href="#lend13" transform="scale(-4.36,-4.36) "/>
		</marker>
	</defs>
	<defs id="Filters">
		<filter id="filter_2.6666667461395">
			<feGaussianBlur stdDeviation="2.6666667461395"/>
		</filter>
	</defs>
	<g v:mID="0" v:index="1" v:groupContext="foregroundPage">
		<title>Page-1</title>
		<v:pageProperties v:drawingScale="0.0393701" v:pageScale="0.0393701" v:drawingUnits="24" v:shadowOffsetX="8.50394"
				v:shadowOffsetY="-8.50394"/>
		<v:layer v:name="Connector" v:index="0"/>
		<g id="shape1007-1" v:mID="1007" v:groupContext="shape" transform="translate(174.215,-148.552)">
			<title>Application Gateway (New) (nc).1007</title>
			<desc>Application Gateway</desc>
			<v:textBlock v:margins="rect(0,0,0,0)" v:tabSpace="42.5197" v:verticalAlign="0"/>
			<v:textRect cx="17.6625" cy="246.467" width="76.5" height="33.3458"/>
			<path d="M26.26 213.9 L20.03 213.9 L22.2 211.73 L17.97 207.5 L17.97 217.58 L21.1 217.58 L16.7 221.99 L12.3 217.58 L15.37
						 217.58 L15.37 207.6 L11.21 211.76 L13.38 213.93 L7.15 213.93 L7.15 207.7 L9.32 209.87 L14.62 204.57 C13.87
						 204.24 13.19 203.71 12.65 203.01 C10.92 200.76 11.35 197.53 13.61 195.8 C14.54 195.08 15.64 194.74 16.73
						 194.74 C18.28 194.74 19.81 195.44 20.82 196.76 C22.55 199.02 22.12 202.24 19.86 203.97 C19.53 204.22 19.19
						 204.42 18.83 204.59 L24.09 209.85 L26.26 207.68 L26.26 213.9 ZM16.67 224.92 C17.47 224.92 18.27 224.59 18.87
						 223.99 L32.48 210.52 C33.08 209.92 33.41 209.12 33.41 208.31 C33.41 207.45 33.08 206.71 32.48 206.11 L18.87
						 192.51 C18.27 191.91 17.47 191.58 16.67 191.58 C15.87 191.58 15.07 191.91 14.47 192.51 L0.93 206.05 C0.33
						 206.65 0 207.45 0 208.25 C0 209.05 0.33 209.85 0.93 210.45 L14.47 223.99 C15.07 224.59 15.87 224.92 16.67
						 224.92 ZM13.87 203.33 C14.68 204 15.69 204.35 16.71 204.35 C17.66 204.35 18.61 204.05 19.42 203.43 C19.55
						 203.32 19.69 203.21 19.81 203.09 C19.36 203.09 18.76 203.06 18.08 202.91 C18.03 202.99 17.96 203.06 17.88
						 203.13 C17.49 203.42 16.94 203.35 16.63 202.96 C16.49 202.78 16.44 202.55 16.46 202.33 C16.04 202.12 15.6
						 201.85 15.16 201.51 C15.03 201.4 14.91 201.3 14.8 201.2 C14.6 201.28 14.39 201.32 14.18 201.3 C13.88 202.12
						 13.84 202.84 13.87 203.33 L13.87 203.33 ZM13.87 203.33 C13.86 203.32 13.85 203.32 13.84 203.31 C13.85 203.32
						 13.86 203.32 13.87 203.33 L13.87 203.33 ZM13.05 202.46 C13.12 202.54 13.09 202.49 13.05 202.44 C13.05 202.44
						 13.05 202.45 13.05 202.46 ZM13.05 202.44 C13.07 201.98 13.15 201.44 13.31 200.89 C13.27 200.86 13.24 200.82
						 13.21 200.78 C12.83 200.28 12.85 199.62 13.21 199.14 C12.9 198.41 12.93 197.79 13.03 197.36 C12 198.86 11.96
						 200.88 13.05 202.44 ZM13.51 196.78 C13.45 197.14 13.42 197.83 13.82 198.69 C14.06 198.61 14.31 198.59 14.55
						 198.64 C14.6 198.59 14.65 198.53 14.7 198.48 C15.11 198.05 15.55 197.68 15.94 197.4 C15.94 197.4 15.94 197.4
						 15.94 197.4 C15.47 196.9 15.05 196.39 14.74 195.88 C14.48 196.01 14.23 196.16 14 196.34 C13.82 196.48 13.66
						 196.62 13.51 196.78 ZM14.74 195.88 C15.33 195.64 15.33 195.63 15.33 195.63 C14.74 195.87 14.74 195.88 14.74
						 195.88 ZM15.33 195.64 C15.75 196.13 16.17 196.58 16.57 197.01 L16.57 197.01 C17.79 196.36 18.86 196.35 19.55
						 196.45 C18.74 195.78 17.72 195.43 16.7 195.43 C16.24 195.43 15.78 195.5 15.33 195.64 ZM19.55 196.45 C19.78
						 196.64 20 196.86 20.2 197.11 C20.2 197.11 20.2 197.11 20.2 197.11 C20.01 196.86 19.79 196.65 19.56 196.45
						 C19.56 196.45 19.55 196.45 19.55 196.45 ZM20.2 197.11 C20.12 197.1 18.98 197.01 17.4 197.86 C17.93 198.39
						 18.43 198.85 18.88 199.26 C19.3 199.02 19.82 199.12 20.12 199.51 C20.33 199.78 20.37 200.13 20.25 200.43
						 C20.6 200.71 20.84 200.9 21.02 201.03 C21.36 199.74 21.12 198.32 20.25 197.18 C20.23 197.15 20.21 197.13
						 20.2 197.11 ZM21.02 201.03 C20.99 201.14 21 201.08 21.02 201.03 L21.02 201.03 ZM20.97 201.2 C20.95 201.26
						 20.93 201.32 20.91 201.38 C20.93 201.32 20.95 201.26 20.97 201.2 ZM20.9 201.41 C20.73 201.3 20.43 201.1
						 20 200.79 C19.98 200.81 19.97 200.83 19.94 200.85 C19.52 201.17 18.92 201.09 18.6 200.67 C18.37 200.37 18.35
						 199.99 18.5 199.68 C17.94 199.24 17.35 198.75 16.79 198.24 C16.43 198.49 16.04 198.8 15.63 199.18 C15.57
						 199.23 15.52 199.28 15.47 199.33 C15.7 199.77 15.67 200.28 15.41 200.68 C15.49 200.75 15.57 200.81 15.66
						 200.88 C16.07 201.21 16.48 201.47 16.86 201.68 C17.25 201.43 17.76 201.51 18.04 201.88 C18.13 201.99 18.18
						 202.11 18.2 202.24 C19.31 202.56 20.13 202.44 20.4 202.39 C20.61 202.08 20.77 201.75 20.9 201.41 L20.9 201.41
						 ZM20.91 201.38 C20.9 201.39 20.9 201.4 20.9 201.41 C20.9 201.4 20.91 201.39 20.91 201.38 ZM20.4 202.39 C20.38
						 202.42 20.36 202.45 20.33 202.48 C20.36 202.45 20.38 202.42 20.4 202.39 L20.4 202.39 ZM16.79 198.24 C16.78
						 198.23 16.76 198.21 16.75 198.2 C16.76 198.21 16.78 198.23 16.79 198.24 L16.79 198.24 ZM16.79 198.24 L16.79
						 198.24 L16.79 198.24 Z" class="st1"/>
			<path d="M26.26 213.9 L20.03 213.9 L22.2 211.73 L17.97 207.5 L17.97 217.58 L21.1 217.58 L16.7 221.99 L12.3 217.58 L15.37
						 217.58 L15.37 207.6 L11.21 211.76 L13.38 213.93 L7.15 213.93 L7.15 207.7 L9.32 209.87 L14.62 204.57 C13.87
						 204.24 13.19 203.71 12.65 203.01 C10.92 200.76 11.35 197.53 13.61 195.8 C14.54 195.08 15.64 194.74 16.73
						 194.74 C18.28 194.74 19.81 195.44 20.82 196.76 C22.55 199.02 22.12 202.24 19.86 203.97 C19.53 204.22 19.19
						 204.42 18.83 204.59 L24.09 209.85 L26.26 207.68 L26.26 213.9" class="st2"/>
			<path d="M16.67 224.92 C17.47 224.92 18.27 224.59 18.87 223.99 L32.48 210.52 C33.08 209.92 33.41 209.12 33.41 208.31
						 C33.41 207.45 33.08 206.71 32.48 206.11 L18.87 192.51 C18.27 191.91 17.47 191.58 16.67 191.58 C15.87 191.58
						 15.07 191.91 14.47 192.51 L0.93 206.05 C0.33 206.65 0 207.45 0 208.25 C0 209.05 0.33 209.85 0.93 210.45
						 L14.47 223.99 C15.07 224.59 15.87 224.92 16.67 224.92" class="st2"/>
			<path d="M13.87 203.33 C14.68 204 15.69 204.35 16.71 204.35 C17.66 204.35 18.61 204.05 19.42 203.43 C19.55 203.32 19.69
						 203.21 19.81 203.09 C19.36 203.09 18.76 203.06 18.08 202.91 C18.03 202.99 17.96 203.06 17.88 203.13 C17.49
						 203.42 16.94 203.35 16.63 202.96 C16.49 202.78 16.44 202.55 16.46 202.33 C16.04 202.12 15.6 201.85 15.16
						 201.51 C15.03 201.4 14.91 201.3 14.8 201.2 C14.6 201.28 14.39 201.32 14.18 201.3 C13.88 202.12 13.84 202.84
						 13.87 203.33" class="st2"/>
			<path d="" class="st2"/>
			<path d="M13.87 203.33 C13.86 203.32 13.85 203.32 13.84 203.31 C13.85 203.32 13.86 203.32 13.87 203.33" class="st2"/>
			<path d="" class="st2"/>
			<path d="M13.05 202.46 C13.12 202.54 13.09 202.49 13.05 202.44 C13.05 202.44 13.05 202.45 13.05 202.46" class="st2"/>
			<path d="M13.05 202.44 C13.07 201.98 13.15 201.44 13.31 200.89 C13.27 200.86 13.24 200.82 13.21 200.78 C12.83 200.28
						 12.85 199.62 13.21 199.14 C12.9 198.41 12.93 197.79 13.03 197.36 C12 198.86 11.96 200.88 13.05 202.44"
					class="st2"/>
			<path d="M0 224.92 C13.03 197.35 13.03 197.36 13.03 197.36" class="st2"/>
			<path d="M13.51 196.78 C13.45 197.14 13.42 197.83 13.82 198.69 C14.06 198.61 14.31 198.59 14.55 198.64 C14.6 198.59 14.65
						 198.53 14.7 198.48 C15.11 198.05 15.55 197.68 15.94 197.4 C15.94 197.4 15.94 197.4 15.94 197.4 C15.47 196.9
						 15.05 196.39 14.74 195.88 C14.48 196.01 14.23 196.16 14 196.34 C13.82 196.48 13.66 196.62 13.51 196.78"
					class="st2"/>
			<path d="M14.74 195.88 C15.33 195.64 15.33 195.63 15.33 195.63 C14.74 195.87 14.74 195.88 14.74 195.88" class="st2"/>
			<path d="M15.33 195.64 C15.75 196.13 16.17 196.58 16.57 197.01 L16.57 197.01 C17.79 196.36 18.86 196.35 19.55 196.45
						 C18.74 195.78 17.72 195.43 16.7 195.43 C16.24 195.43 15.78 195.5 15.33 195.64" class="st2"/>
			<path d="M19.55 196.45 C19.78 196.64 20 196.86 20.2 197.11 C20.2 197.11 20.2 197.11 20.2 197.11 C20.01 196.86 19.79 196.65
						 19.56 196.45 C19.56 196.45 19.55 196.45 19.55 196.45" class="st2"/>
			<path d="M20.2 197.11 C20.12 197.1 18.98 197.01 17.4 197.86 C17.93 198.39 18.43 198.85 18.88 199.26 C19.3 199.02 19.82
						 199.12 20.12 199.51 C20.33 199.78 20.37 200.13 20.25 200.43 C20.6 200.71 20.84 200.9 21.02 201.03 C21.36
						 199.74 21.12 198.32 20.25 197.18 C20.23 197.15 20.21 197.13 20.2 197.11" class="st2"/>
			<path d="M21.02 201.03 C20.99 201.14 21 201.08 21.02 201.03" class="st2"/>
			<path d="" class="st2"/>
			<path d="M20.97 201.2 C20.95 201.26 20.93 201.32 20.91 201.38 C20.93 201.32 20.95 201.26 20.97 201.2" class="st2"/>
			<path d="M20.9 201.41 C20.73 201.3 20.43 201.1 20 200.79 C19.98 200.81 19.97 200.83 19.94 200.85 C19.52 201.17 18.92
						 201.09 18.6 200.67 C18.37 200.37 18.35 199.99 18.5 199.68 C17.94 199.24 17.35 198.75 16.79 198.24 C16.43
						 198.49 16.04 198.8 15.63 199.18 C15.57 199.23 15.52 199.28 15.47 199.33 C15.7 199.77 15.67 200.28 15.41
						 200.68 C15.49 200.75 15.57 200.81 15.66 200.88 C16.07 201.21 16.48 201.47 16.86 201.68 C17.25 201.43 17.76
						 201.51 18.04 201.88 C18.13 201.99 18.18 202.11 18.2 202.24 C19.31 202.56 20.13 202.44 20.4 202.39 C20.61
						 202.08 20.77 201.75 20.9 201.41" class="st2"/>
			<path d="" class="st2"/>
			<path d="M20.91 201.38 C20.9 201.39 20.9 201.4 20.9 201.41 C20.9 201.4 20.91 201.39 20.91 201.38" class="st2"/>
			<path d="M20.4 202.39 C20.38 202.42 20.36 202.45 20.33 202.48 C20.36 202.45 20.38 202.42 20.4 202.39" class="st2"/>
			<path d="" class="st2"/>
			<path d="M0 224.92 C19.81 203.09 19.82 203.09 19.83 203.09" class="st2"/>
			<path d="M16.79 198.24 C16.78 198.23 16.76 198.21 16.75 198.2 C16.76 198.21 16.78 198.23 16.79 198.24" class="st2"/>
			<path d="" class="st2"/>
			<path d="M16.79 198.24 L16.79 198.24" class="st2"/>
			<path d="" class="st2"/>
			<text x="-4.88" y="237.89" class="st3" v:langID="9225"><v:paragraph v:horizAlign="1"/><v:tabList/>Application <tspan
						x="0.69" dy="1.2em" class="st4">Gateway</tspan></text>		</g>
		<g id="shape1008-32" v:mID="1008" v:groupContext="shape" transform="translate(153.22,-54.6732)">
			<title>Virtual Network Box.1008</title>
			<path d="M0 224.92 L184.8 224.92 L184.8 86.02 L0 86.02 L0 224.92 Z" class="st5"/>
		</g>
		<g id="group1009-34" transform="translate(302.753,-33.6788)" v:mID="1009" v:groupContext="group">
			<title>Virtual Network.1009</title>
			<desc>Virtual Network</desc>
			<g id="shape1010-35" v:mID="1010" v:groupContext="shape" transform="translate(17.5312,2.84217E-14)">
				<title>Sheet.1010</title>
				<path d="M7.65 218.1 L6.12 216.57 L0.83 211.28 L0 212.17 L5.93 218.1 L0 224.03 L0.83 224.92 L6.12 219.63 L7.65 218.1
							 Z" class="st6"/>
			</g>
			<g id="shape1011-37" v:mID="1011" v:groupContext="shape">
				<title>Sheet.1011</title>
				<path d="M0 218.1 L1.53 216.57 L6.82 211.28 L7.65 212.17 L1.72 218.1 L7.65 224.03 L6.82 224.92 L1.53 219.63 L0 218.1
							 Z" class="st6"/>
			</g>
			<g id="shape1012-39" v:mID="1012" v:groupContext="shape" transform="translate(6.5025,-5.29125)">
				<title>Sheet.1012</title>
				<path d="M3.06 223.39 C3.06 224.22 2.36 224.92 1.53 224.92 C0.64 224.92 0 224.22 0 223.39 C0 222.56 0.7 221.86 1.53
							 221.86 C2.36 221.86 3.06 222.5 3.06 223.39 Z" class="st6"/>
			</g>
			<g id="shape1013-41" v:mID="1013" v:groupContext="shape" transform="translate(11.0925,-5.29125)">
				<title>Sheet.1013</title>
				<ellipse cx="1.53" cy="223.391" rx="1.53" ry="1.53" class="st6"/>
			</g>
			<g id="shape1014-43" v:mID="1014" v:groupContext="shape" transform="translate(15.6825,-5.29125)">
				<title>Sheet.1014</title>
				<ellipse cx="1.53" cy="223.391" rx="1.53" ry="1.53" class="st6"/>
			</g>
			<g id="shape1009-45" v:mID="1009" v:groupContext="groupContent">
				<v:textBlock v:margins="rect(0,0,0,0)" v:tabSpace="42.5197" v:verticalAlign="0"/>
				<v:textRect cx="12.5906" cy="243.131" width="72" height="30.9375"/>
				<text x="-18.48" y="235.76" class="st3" v:langID="9225"><v:paragraph v:horizAlign="1"/><v:tabList/>Virtual Network</text>			</g>
		</g>
		<g id="shape1043-47" v:mID="1043" v:groupContext="shape" transform="translate(333.336,45.5234) rotate(90)">
			<title>Service Endpoint.1100</title>
			<desc>Public IP</desc>
			<v:userDefs>
				<v:ud v:nameU="visVersion" v:val="VT0(15):26"/>
			</v:userDefs>
			<v:textBlock v:margins="rect(2,2,2,2)" v:tabSpace="42.5197"/>
			<v:textRect cx="36.7691" cy="213.765" width="40.32" height="9" transform="rotate(-90)"/>
			<path d="M0 224.92 A3.312 3.312 0 0 1 6.62 224.92 A3.312 3.312 0 1 1 0 224.92 Z" class="st1"/>
			<path d="M6.62 224.92 L41.27 224.92" class="st7"/>
			<path d="M0 224.92 A3.312 3.312 0 0 1 6.62 224.92 A3.312 3.312 0 1 1 0 224.92" class="st7"/>
			<rect v:rectContext="textBkgnd" x="-229.452" y="31.3691" width="33.8423" height="10.7998" transform="rotate(-90)"
					class="st8"/>
			<text x="-229.45" y="39.47" transform="rotate(-90)" class="st3" v:langID="1033"><v:paragraph v:horizAlign="2"/><v:tabList/>Public IP</text>		</g>
		<g id="shape1051-53" v:mID="1051" v:groupContext="shape" transform="translate(85.7374,-14.9882)">
			<title>Sheet.1051</title>
			<g id="shadow1051-54" v:groupContext="shadow" v:shadowOffsetX="2.12132" v:shadowOffsetY="-2.12132" v:shadowType="1"
					transform="matrix(1,0,0,1,2.12132,2.12132)" class="st9">
				<rect x="0" y="17.9919" width="272.126" height="206.929" class="st10"/>
			</g>
			<rect x="0" y="17.9919" width="272.126" height="206.929" class="st11"/>
		</g>
		<g id="shape1109-58" v:mID="1109" v:groupContext="shape" v:layerMember="0" transform="translate(114.895,-168.559)">
			<title>Dynamic connector.1134</title>
			<desc>443</desc>
			<v:textBlock v:margins="rect(4,4,4,4)" v:tabSpace="42.5197"/>
			<v:textRect cx="29.66" cy="217.834" width="40" height="17.6036"/>
			<path d="M0 217.83 L49.51 217.83" class="st12"/>
			<rect v:rectContext="textBkgnd" x="23.5778" y="213.035" width="12.1643" height="9.59985" class="st8"/>
			<text x="23.58" y="220.23" class="st14" v:langID="1033"><v:paragraph v:horizAlign="1"/><v:tabList/>443</text>		</g>
		<g id="shape1117-66" v:mID="1117" v:groupContext="shape" v:layerMember="0" transform="translate(207.627,-164.551)">
			<title>Dynamic connector.1117</title>
			<desc>/a/* 80</desc>
			<v:textBlock v:margins="rect(4,4,4,4)" v:tabSpace="42.5197"/>
			<v:textRect cx="30.2056" cy="211.422" width="40" height="27.2035"/>
			<path d="M0 224.25 L10.63 224.25 L10.63 211.42 L63.43 211.42" class="st12"/>
			<rect v:rectContext="textBkgnd" x="23.2074" y="201.822" width="13.9963" height="19.1997" class="st8"/>
			<text x="23.21" y="209.02" class="st14" v:langID="1033"><v:paragraph v:horizAlign="1"/><v:tabList/>/<tspan class="st4"
						v:langID="3084">a</tspan>/*<v:lf/><tspan x="26.15" dy="1.2em" class="st4">80</tspan></text>		</g>
		<g id="shape1118-75" v:mID="1118" v:groupContext="shape" v:layerMember="0" transform="translate(207.627,-165.224)">
			<title>Dynamic connector.1118</title>
			<desc>/b/* 80</desc>
			<v:textBlock v:margins="rect(4,4,4,4)" v:tabSpace="42.5197"/>
			<v:textRect cx="31.1811" cy="258.937" width="40" height="27.2035"/>
			<path d="M0 224.92 L10.63 224.92 L10.63 260.27 L63.43 260.27" class="st12"/>
			<rect v:rectContext="textBkgnd" x="23.9975" y="249.337" width="14.3674" height="19.1997" class="st8"/>
			<text x="24" y="256.54" class="st14" v:langID="1033"><v:paragraph v:horizAlign="1"/><v:tabList/>/<tspan class="st4"
						v:langID="3084">b</tspan>/*<v:newlineChar/><tspan x="27.13" dy="1.2em" class="st4">80</tspan></text>		</g>
		<g id="shape1119-84" v:mID="1119" v:groupContext="shape" v:layerMember="0" transform="translate(207.627,-165.224)">
			<title>Dynamic connector.1119</title>
			<desc>/c/* 80</desc>
			<v:textBlock v:margins="rect(4,4,4,4)" v:tabSpace="42.5197"/>
			<v:textRect cx="29.5296" cy="312.52" width="40" height="27.2035"/>
			<path d="M0 224.92 L10.63 224.92 L10.63 309.67 L63.43 309.67" class="st12"/>
			<rect v:rectContext="textBkgnd" x="22.756" y="302.921" width="13.547" height="19.1997" class="st8"/>
			<text x="22.76" y="310.12" class="st14" v:langID="1033"><v:paragraph v:horizAlign="1"/><v:tabList/>/<tspan class="st4"
						v:langID="3084">c</tspan>/*<v:newlineChar/><tspan x="25.47" dy="1.2em" class="st4">80</tspan></text>		</g>
		<g id="group1129-93" transform="translate(17.7059,-148.552)" v:mID="1129" v:groupContext="group">
			<title>Sheet.1129</title>
			<g id="group1130-94" v:mID="1130" v:groupContext="group">
				<title>Sheet.1130</title>
				<g id="group1131-95" transform="translate(7.78239,-12.9121)" v:mID="1131" v:groupContext="group">
					<title>Sheet.1131</title>
					<g id="shape1132-96" v:mID="1132" v:groupContext="shape">
						<title>Sheet.1132</title>
						<path d="M7.32 205.18 C2.66 206.29 0 211.39 1.33 216.49 C2.66 221.59 7.32 224.92 11.98 223.81 C16.64 222.7
									 19.3 217.6 17.97 212.5 C16.86 207.17 11.98 203.85 7.32 205.18 Z" class="st15"/>
					</g>
				</g>
				<g id="group1133-98" v:mID="1133" v:groupContext="group">
					<title>Sheet.1133</title>
					<g id="shape1134-99" v:mID="1134" v:groupContext="shape">
						<title>Sheet.1134</title>
						<path d="M25.07 212.28 C24.18 212.28 23.29 213.83 21.96 214.49 C20.63 215.16 19.3 216.27 15.53 214.49 C11.76
									 212.72 11.31 211.17 8.21 211.17 C5.1 211.17 0 216.71 0 224.92 L31.5 224.92 C31.5 224.92 31.06
									 219.38 29.28 216.49 C27.06 212.28 25.95 212.28 25.07 212.28 Z" class="st15"/>
					</g>
				</g>
			</g>
		</g>
		<g id="shape1135-101" v:mID="1135" v:groupContext="shape" transform="translate(0.375,-126.878)">
			<title>Sheet.1135</title>
			<desc>Browser</desc>
			<v:textBlock v:margins="rect(4,4,4,4)" v:tabSpace="42.5197"/>
			<v:textRect cx="33.0809" cy="214.921" width="66.17" height="20"/>
			<rect x="0" y="204.921" width="66.1618" height="20" class="st16"/>
			<text x="12.85" y="218.52" class="st17" v:langID="1033"><v:paragraph v:horizAlign="1"/><v:tabList/>Browser</text>		</g>
		<g id="shape1136-104" v:mID="1136" v:groupContext="shape" v:layerMember="0" transform="translate(42.9279,-168.559)">
			<title>Dynamic connector.1136</title>
			<desc>443</desc>
			<v:textBlock v:margins="rect(4,4,4,4)" v:tabSpace="42.5197"/>
			<v:textRect cx="29.5033" cy="217.834" width="40" height="17.6036"/>
			<path d="M0 217.83 L49.2 217.83" class="st12"/>
			<rect v:rectContext="textBkgnd" x="23.4211" y="213.035" width="12.1643" height="9.59985" class="st8"/>
			<text x="23.42" y="220.23" class="st14" v:langID="1033"><v:paragraph v:horizAlign="1"/><v:tabList/>443</text>		</g>
		<g id="shape1137-111" v:mID="1137" v:groupContext="shape" v:layerMember="0" transform="translate(190.888,-179.831)">
			<title>Dynamic connector.1137</title>
			<desc>default</desc>
			<v:textBlock v:margins="rect(4,4,4,4)" v:tabSpace="42.5197"/>
			<v:textRect cx="43.6339" cy="202.185" width="40" height="17.6036"/>
			<path d="M0 222.85 L0 202.18 L97.31 202.18 L97.31 203" class="st12"/>
			<rect v:rectContext="textBkgnd" x="32.0461" y="197.385" width="23.1754" height="9.59985" class="st8"/>
			<text x="32.05" y="204.58" class="st14" v:langID="3084"><v:paragraph v:horizAlign="1"/><v:tabList/>default</text>		</g>
		<g id="group1140-118" transform="translate(278.054,-146.583)" v:mID="1140" v:groupContext="group">
			<title>Sheet.1140</title>
			<g id="shape1138-119" v:mID="1138" v:groupContext="shape" transform="translate(1.19789,-17.3697)">
				<title>VM Scale Set (nc).1138</title>
				<path d="M17.58 212.71 C17.6 212.71 17.62 212.7 17.64 212.69 L21.36 210.55 C21.39 210.52 21.41 210.49 21.41 210.45
							 C21.41 210.41 21.39 210.37 21.36 210.35 L17.61 208.19 C17.58 208.17 17.53 208.17 17.5 208.19 L13.78
							 210.33 C13.74 210.35 13.72 210.39 13.72 210.43 C13.72 210.47 13.74 210.51 13.78 210.53 L17.52 212.69
							 C17.54 212.7 17.56 212.71 17.58 212.71 ZM17.04 217.95 C17.06 217.95 17.08 217.95 17.1 217.94 C17.13
							 217.92 17.15 217.88 17.15 217.84 L17.15 213.52 C17.15 213.48 17.13 213.44 17.1 213.42 L13.36 211.27
							 C13.33 211.25 13.29 211.25 13.25 211.27 C13.21 211.29 13.19 211.33 13.19 211.37 L13.19 215.69 C13.19
							 215.73 13.21 215.77 13.25 215.79 L16.98 217.94 C17 217.95 17.02 217.95 17.04 217.95 ZM18.1 217.95 C18.12
							 217.95 18.14 217.95 18.15 217.94 L21.89 215.79 C21.92 215.77 21.94 215.73 21.94 215.69 L21.94 211.4
							 C21.94 211.36 21.92 211.32 21.89 211.3 C21.85 211.28 21.81 211.28 21.77 211.3 L18.04 213.45 C18.01 213.47
							 17.99 213.51 17.99 213.55 L17.99 217.84 C17.99 217.88 18.01 217.92 18.04 217.94 C18.06 217.95 18.08
							 217.95 18.1 217.95 ZM16.53 205.32 L14.24 203.99 C14.2 203.97 14.16 203.97 14.13 203.99 L11.83 205.32
							 L7.7 205.32 C7.06 205.32 6.55 205.89 6.55 206.52 L6.55 215.01 L4.95 215.01 L4.95 202.75 L22.99 202.73
							 L22.99 205.32 L16.53 205.32 ZM20.34 220.84 L26.53 220.84 C27.17 220.84 27.81 220.27 27.81 219.64 L27.81
							 206.52 C27.81 205.89 27.17 205.32 26.53 205.32 L24.61 205.32 L24.61 202.33 C24.61 201.69 23.96 201.12
							 23.32 201.12 L21.27 201.12 L21.27 198.15 C21.27 197.51 20.62 196.94 19.98 196.94 L1.16 196.94 C0.52
							 196.94 0 197.51 0 198.15 L0 211.26 C0 211.89 0.52 212.46 1.16 212.46 L3.34 212.46 L3.34 215.44 C3.34
							 216.08 3.85 216.64 4.49 216.64 L6.55 216.64 L6.55 219.64 C6.55 220.27 7.06 220.84 7.7 220.84 L14.55
							 220.84 C15.25 223.29 14.31 223.64 10.23 223.64 L10.23 224.92 L24.13 224.92 L24.13 223.64 C20.04 223.64
							 19.64 223.29 20.34 220.84 ZM26.37 219.2 L8.33 219.2 L8.33 206.95 L26.37 206.92 L26.37 219.2 ZM13.17
							 201.12 L10.9 199.81 C10.86 199.79 10.82 199.79 10.79 199.81 L8.51 201.12 L4.49 201.12 C3.85 201.12 3.34
							 201.69 3.34 202.33 L3.34 210.82 L1.61 210.82 L1.61 198.57 L19.65 198.54 L19.65 201.12 L13.17 201.12
							 Z" class="st18"/>
			</g>
			<g id="shape1139-121" v:mID="1139" v:groupContext="shape">
				<title>Sheet.1139</title>
				<desc>App-A</desc>
				<v:textBlock v:margins="rect(0,0,0,0)" v:tabSpace="42.5197"/>
				<v:textRect cx="18.6446" cy="214.921" width="37.29" height="20"/>
				<rect x="0" y="204.921" width="37.2893" height="20" class="st19"/>
				<text x="5.75" y="217.62" class="st3" v:langID="3084"><v:paragraph v:horizAlign="1"/><v:tabList/>App-A</text>			</g>
		</g>
		<g id="group1141-124" transform="translate(278.054,-98.4053)" v:mID="1141" v:groupContext="group">
			<title>Sheet.1141</title>
			<g id="shape1142-125" v:mID="1142" v:groupContext="shape" transform="translate(1.19789,-17.3697)">
				<title>VM Scale Set (nc).1138</title>
				<path d="M17.58 212.71 C17.6 212.71 17.62 212.7 17.64 212.69 L21.36 210.55 C21.39 210.52 21.41 210.49 21.41 210.45
							 C21.41 210.41 21.39 210.37 21.36 210.35 L17.61 208.19 C17.58 208.17 17.53 208.17 17.5 208.19 L13.78
							 210.33 C13.74 210.35 13.72 210.39 13.72 210.43 C13.72 210.47 13.74 210.51 13.78 210.53 L17.52 212.69
							 C17.54 212.7 17.56 212.71 17.58 212.71 ZM17.04 217.95 C17.06 217.95 17.08 217.95 17.1 217.94 C17.13
							 217.92 17.15 217.88 17.15 217.84 L17.15 213.52 C17.15 213.48 17.13 213.44 17.1 213.42 L13.36 211.27
							 C13.33 211.25 13.29 211.25 13.25 211.27 C13.21 211.29 13.19 211.33 13.19 211.37 L13.19 215.69 C13.19
							 215.73 13.21 215.77 13.25 215.79 L16.98 217.94 C17 217.95 17.02 217.95 17.04 217.95 ZM18.1 217.95 C18.12
							 217.95 18.14 217.95 18.15 217.94 L21.89 215.79 C21.92 215.77 21.94 215.73 21.94 215.69 L21.94 211.4
							 C21.94 211.36 21.92 211.32 21.89 211.3 C21.85 211.28 21.81 211.28 21.77 211.3 L18.04 213.45 C18.01 213.47
							 17.99 213.51 17.99 213.55 L17.99 217.84 C17.99 217.88 18.01 217.92 18.04 217.94 C18.06 217.95 18.08
							 217.95 18.1 217.95 ZM16.53 205.32 L14.24 203.99 C14.2 203.97 14.16 203.97 14.13 203.99 L11.83 205.32
							 L7.7 205.32 C7.06 205.32 6.55 205.89 6.55 206.52 L6.55 215.01 L4.95 215.01 L4.95 202.75 L22.99 202.73
							 L22.99 205.32 L16.53 205.32 ZM20.34 220.84 L26.53 220.84 C27.17 220.84 27.81 220.27 27.81 219.64 L27.81
							 206.52 C27.81 205.89 27.17 205.32 26.53 205.32 L24.61 205.32 L24.61 202.33 C24.61 201.69 23.96 201.12
							 23.32 201.12 L21.27 201.12 L21.27 198.15 C21.27 197.51 20.62 196.94 19.98 196.94 L1.16 196.94 C0.52
							 196.94 0 197.51 0 198.15 L0 211.26 C0 211.89 0.52 212.46 1.16 212.46 L3.34 212.46 L3.34 215.44 C3.34
							 216.08 3.85 216.64 4.49 216.64 L6.55 216.64 L6.55 219.64 C6.55 220.27 7.06 220.84 7.7 220.84 L14.55
							 220.84 C15.25 223.29 14.31 223.64 10.23 223.64 L10.23 224.92 L24.13 224.92 L24.13 223.64 C20.04 223.64
							 19.64 223.29 20.34 220.84 ZM26.37 219.2 L8.33 219.2 L8.33 206.95 L26.37 206.92 L26.37 219.2 ZM13.17
							 201.12 L10.9 199.81 C10.86 199.79 10.82 199.79 10.79 199.81 L8.51 201.12 L4.49 201.12 C3.85 201.12 3.34
							 201.69 3.34 202.33 L3.34 210.82 L1.61 210.82 L1.61 198.57 L19.65 198.54 L19.65 201.12 L13.17 201.12
							 Z" class="st18"/>
			</g>
			<g id="shape1143-127" v:mID="1143" v:groupContext="shape">
				<title>Sheet.1143</title>
				<desc>App-B</desc>
				<v:textBlock v:margins="rect(0,0,0,0)" v:tabSpace="42.5197"/>
				<v:textRect cx="18.6446" cy="214.921" width="37.29" height="20"/>
				<rect x="0" y="204.921" width="37.2893" height="20" class="st19"/>
				<text x="6.07" y="217.62" class="st3" v:langID="3084"><v:paragraph v:horizAlign="1"/><v:tabList/>App-<tspan
							class="st4" v:langID="1033">B</tspan></text>			</g>
		</g>
		<g id="group1144-131" transform="translate(278.054,-49.0039)" v:mID="1144" v:groupContext="group">
			<title>Sheet.1144</title>
			<g id="shape1145-132" v:mID="1145" v:groupContext="shape" transform="translate(1.19789,-17.3697)">
				<title>VM Scale Set (nc).1138</title>
				<path d="M17.58 212.71 C17.6 212.71 17.62 212.7 17.64 212.69 L21.36 210.55 C21.39 210.52 21.41 210.49 21.41 210.45
							 C21.41 210.41 21.39 210.37 21.36 210.35 L17.61 208.19 C17.58 208.17 17.53 208.17 17.5 208.19 L13.78
							 210.33 C13.74 210.35 13.72 210.39 13.72 210.43 C13.72 210.47 13.74 210.51 13.78 210.53 L17.52 212.69
							 C17.54 212.7 17.56 212.71 17.58 212.71 ZM17.04 217.95 C17.06 217.95 17.08 217.95 17.1 217.94 C17.13
							 217.92 17.15 217.88 17.15 217.84 L17.15 213.52 C17.15 213.48 17.13 213.44 17.1 213.42 L13.36 211.27
							 C13.33 211.25 13.29 211.25 13.25 211.27 C13.21 211.29 13.19 211.33 13.19 211.37 L13.19 215.69 C13.19
							 215.73 13.21 215.77 13.25 215.79 L16.98 217.94 C17 217.95 17.02 217.95 17.04 217.95 ZM18.1 217.95 C18.12
							 217.95 18.14 217.95 18.15 217.94 L21.89 215.79 C21.92 215.77 21.94 215.73 21.94 215.69 L21.94 211.4
							 C21.94 211.36 21.92 211.32 21.89 211.3 C21.85 211.28 21.81 211.28 21.77 211.3 L18.04 213.45 C18.01 213.47
							 17.99 213.51 17.99 213.55 L17.99 217.84 C17.99 217.88 18.01 217.92 18.04 217.94 C18.06 217.95 18.08
							 217.95 18.1 217.95 ZM16.53 205.32 L14.24 203.99 C14.2 203.97 14.16 203.97 14.13 203.99 L11.83 205.32
							 L7.7 205.32 C7.06 205.32 6.55 205.89 6.55 206.52 L6.55 215.01 L4.95 215.01 L4.95 202.75 L22.99 202.73
							 L22.99 205.32 L16.53 205.32 ZM20.34 220.84 L26.53 220.84 C27.17 220.84 27.81 220.27 27.81 219.64 L27.81
							 206.52 C27.81 205.89 27.17 205.32 26.53 205.32 L24.61 205.32 L24.61 202.33 C24.61 201.69 23.96 201.12
							 23.32 201.12 L21.27 201.12 L21.27 198.15 C21.27 197.51 20.62 196.94 19.98 196.94 L1.16 196.94 C0.52
							 196.94 0 197.51 0 198.15 L0 211.26 C0 211.89 0.52 212.46 1.16 212.46 L3.34 212.46 L3.34 215.44 C3.34
							 216.08 3.85 216.64 4.49 216.64 L6.55 216.64 L6.55 219.64 C6.55 220.27 7.06 220.84 7.7 220.84 L14.55
							 220.84 C15.25 223.29 14.31 223.64 10.23 223.64 L10.23 224.92 L24.13 224.92 L24.13 223.64 C20.04 223.64
							 19.64 223.29 20.34 220.84 ZM26.37 219.2 L8.33 219.2 L8.33 206.95 L26.37 206.92 L26.37 219.2 ZM13.17
							 201.12 L10.9 199.81 C10.86 199.79 10.82 199.79 10.79 199.81 L8.51 201.12 L4.49 201.12 C3.85 201.12 3.34
							 201.69 3.34 202.33 L3.34 210.82 L1.61 210.82 L1.61 198.57 L19.65 198.54 L19.65 201.12 L13.17 201.12
							 Z" class="st18"/>
			</g>
			<g id="shape1146-134" v:mID="1146" v:groupContext="shape">
				<title>Sheet.1146</title>
				<desc>App-C</desc>
				<v:textBlock v:margins="rect(0,0,0,0)" v:tabSpace="42.5197"/>
				<v:textRect cx="18.6446" cy="214.921" width="37.29" height="20"/>
				<rect x="0" y="204.921" width="37.2893" height="20" class="st19"/>
				<text x="5.87" y="217.62" class="st3" v:langID="3084"><v:paragraph v:horizAlign="1"/><v:tabList/>App-<tspan
							class="st4" v:langID="1033">C</tspan></text>			</g>
		</g>
	</g>
</svg>
