<?xml version="1.0" encoding="UTF-8" ?>
<svg id="Layer_1" data-name="Layer 1" xmlns="http://www.w3.org/2000/svg" xmlns:xlink="http://www.w3.org/1999/xlink" viewBox="0 0 1367 300">
  <defs>
    <style>
      .cls-1 {
        fill: none
      }

      .cls-2 {
        clip-path: url(#clip-path)
      }

      .cls-3 {
        fill: #f9f9f9
      }

      .cls-4 {
        fill: #0071bc
      }

      .cls-5,
      .cls-6,
      .cls-7,
      .cls-8,
      .cls-9 {
        fill: #fff
      }

      .cls-5 {
        opacity: .15
      }

      .cls-10,
      .cls-5,
      .cls-7,
      .cls-8,
      .cls-9 {
        isolation: isolate
      }

      .cls-7 {
        opacity: .7
      }

      .cls-8 {
        opacity: .4
      }

      .cls-10,
      .cls-9 {
        opacity: .2
      }

      .cls-10 {
        fill: #a0a1a2
      }
    </style>
    <clipPath id="clip-path">
      <rect class="cls-1" x="0.28" y="1" width="1367" height="299"></rect>
    </clipPath>
  </defs>
  <title>hostingstart-v2-02</title>
  <g id="Layer_2" data-name="Layer 2">
    <g class="cls-2">
      <g id="Mobile">
        <path class="cls-3" d="M68.35,73.17a3.24,3.24,0,0,1-2.65,3.74l-.14,0L34.74,81.2A3.24,3.24,0,0,1,31,78.52q0-.08,0-.17L24.33,30A3.24,3.24,0,0,1,27,26.26l.14,0L57.93,22a3.24,3.24,0,0,1,3.69,2.71l0,.14Z"></path>
        <rect class="cls-4" x="29.55" y="29.47" width="32.83" height="39.02" transform="translate(-6.3 6.78) rotate(-7.9)"></rect>
        <path class="cls-4" d="M52.55,73.24A3.18,3.18,0,1,1,49,70.48h0a3.19,3.19,0,0,1,3.59,2.74v0"></path>
        <path class="cls-3" d="M51.48,73.39a2.07,2.07,0,0,1-1.73,2.36h-.06a2.09,2.09,0,1,1,1.79-2.34h0"></path>
        <path class="cls-5" d="M32.39,70.55,27,31.9l24.74-3.43,1.37-5.79-26,3.61a3.24,3.24,0,0,0-2.79,3.63V30L31,78.35a3.24,3.24,0,0,0,3.57,2.87l.14,0,4-.56,2.82-11.37-9.17,1.27Z"></path>
        <path class="cls-6" d="M48.5,26.48a.74.74,0,0,1-.62.85h0l-9.49,1.32a.75.75,0,0,1-.21-1.49l9.44-1.31a.7.7,0,0,1,.9.64"></path>
        <path class="cls-6" d="M48.5,26.48a.74.74,0,0,1-.62.85h0l-9.49,1.32a.75.75,0,0,1-.21-1.49l9.44-1.31a.7.7,0,0,1,.9.64"></path>
        <path class="cls-6" d="M45.88,47.54h-.11L35.46,43.28c-.11,0-.12-.09-.14-.2a.38.38,0,0,1,.08-.23L44.18,36h.32l10.32,4.27c.11,0,.12.09.14.2s0,.21-.08.23L46.2,47.5h-.32"></path>
        <path class="cls-7" d="M46.38,61.33h-.11L35.9,57.08c-.11,0-.12-.09-.14-.2l-1.55-11.2a.38.38,0,0,1,.08-.23h.32l10.32,4.27c.11,0,.12.09.14.2l1.55,11.2a.38.38,0,0,1-.08.23h-.16"></path>
        <path class="cls-8" d="M49,61h-.11c-.11,0-.12-.09-.14-.2L47.27,49.69a.38.38,0,0,1,.08-.23l8.77-6.92h.32c.11,0,.12.09.14.2l1.52,11A.38.38,0,0,1,58,54l-8.71,6.92L49,61"></path>
      </g>
      <g id="Web">
        <path class="cls-3" d="M257,44.51A27.67,27.67,0,1,1,217.63,5.63a27.08,27.08,0,0,1,15.88-8A27.63,27.63,0,0,1,257,44.51"></path>
        <path class="cls-4" d="M249.61,28.27a5.83,5.83,0,0,0,8.24.11l.11-.11.28-.36c2.87,1.5,4.9,2.47,6,3.07a19.29,19.29,0,0,0,.43-2.39c-1.22-.59-2.78-1.62-5.2-3.08a6.48,6.48,0,0,0-1.54-5.59,5.89,5.89,0,0,0-7.78-.49c-3.06-2.13-6.55-4.57-10.29-7.31,9.32-6.77,16.55-7,16.55-7a26.09,26.09,0,0,0-4.5-3.5,29.83,29.83,0,0,0-17.84,6h0q-4.31-3.47-8.84-7.4c-1.17.6-2.27,1.24-3.42,1.94a55.73,55.73,0,0,0,8.77,8.44h0a44.53,44.53,0,0,0-6.64,7.65,5.11,5.11,0,0,0-.71,1.13,8,8,0,0,0-4.43.94,19.75,19.75,0,0,1-3.51-11.61,24.75,24.75,0,0,0-2.48,4,17.45,17.45,0,0,0,2.66,10.92,8.55,8.55,0,0,0,1.4,10.12l.73.55a45.7,45.7,0,0,0-.32,9.81c.26.29.3.61.67.94a32.94,32.94,0,0,0,5.19,3.78A30.34,30.34,0,0,1,223.27,36,8,8,0,0,0,227,34.83c.73.55,1.61,1,2.44,1.56a45.42,45.42,0,0,0,8.69,4A5.33,5.33,0,0,0,239.8,44a5.5,5.5,0,0,0,7.78,0l0,0a5.84,5.84,0,0,0,1-1.5,45.79,45.79,0,0,0,10.91-.38c.43-.06,2-3,2.92-4.8a30.14,30.14,0,0,1-13.6,1,4.15,4.15,0,0,0-1.31-2,5.42,5.42,0,0,0-7.41-.22,53.54,53.54,0,0,1-8.12-4c-.59-.35-1.12-.6-1.71-1a8.24,8.24,0,0,0-.83-8.3l.87-1.15a56.71,56.71,0,0,1,6.33-6.79l-.24-.18.24.18h0c3.85,2.72,7.89,5.2,11.78,7.43A5.18,5.18,0,0,0,249.61,28.27Z"></path>
      </g>
      <g id="API">
        <path class="cls-4" d="M308.22,37a2.22,2.22,0,0,0,2.49,1.88l50.54-7a2.22,2.22,0,0,0,1.88-2.49L358.34-5.16,303.43,2.47Z"></path>
        <path class="cls-6" d="M350.87-10.42a2.26,2.26,0,0,0-2.48-2l-.13,0a2.26,2.26,0,0,0-2,2.48l0,.13,3.23,23.24L345,14a13.93,13.93,0,0,0-4.74-6.73A13.54,13.54,0,0,0,330,4.65a13.94,13.94,0,0,0-9.19,5.41,2.48,2.48,0,0,0,.46,3.31,2.37,2.37,0,0,0,3.31-.46,9.15,9.15,0,0,1,6.13-3.57,9.72,9.72,0,0,1,6.87,1.76,9.26,9.26,0,0,1-4.33,16.58,9.72,9.72,0,0,1-6.87-1.76,2.37,2.37,0,0,0-3.31.46,2.48,2.48,0,0,0,.46,3.31,13.54,13.54,0,0,0,10.32,2.7A13.94,13.94,0,0,0,343,27a13.66,13.66,0,0,0,2.77-8.26l6.72-.93a2.26,2.26,0,0,0,2-2.48l0-.13-3.55-25.59Z"></path>
        <path class="cls-6" d="M331,12.76a5.61,5.61,0,0,0-4.51,3.89L317,18,313.77-5.27a2.26,2.26,0,0,0-2.48-2l-.13,0a2.31,2.31,0,0,0-1.87,2.6l3.55,25.54a2.26,2.26,0,0,0,2.48,2l.13,0,11.84-1.64a5.52,5.52,0,0,0,10.13-3.74A5.74,5.74,0,0,0,331,12.76Z"></path>
        <path class="cls-3" d="M354.74-15.09l-50.54,7a2.25,2.25,0,0,0-1.88,2.49l1.16,8.37,54.91-7.62-1.16-8.37a2.25,2.25,0,0,0-2.49-1.88"></path>
        <path class="cls-9" d="M304.2-8.07a2.25,2.25,0,0,0-1.88,2.49l1.12,8,.5,3.63,4.28,30.81a2.22,2.22,0,0,0,2.49,1.88l2.4-.33,36.78-52.92Z"></path>
      </g>
      <g id="Mobile-2">
        <path class="cls-3" d="M450.19,20.16a3.24,3.24,0,0,1-2.65,3.74l-.14,0L416.59,28.2a3.24,3.24,0,0,1-3.69-2.71l0-.14L406.17-23a3.24,3.24,0,0,1,2.7-3.7l.13,0L439.77-31a3.24,3.24,0,0,1,3.69,2.71l0,.14Z"></path>
        <rect class="cls-4" x="411.4" y="-23.52" width="32.83" height="39.02" transform="translate(4.61 58.76) rotate(-7.9)"></rect>
        <path class="cls-4" d="M434.39,20.23a3.18,3.18,0,1,1-3.59-2.76,3.18,3.18,0,0,1,3.59,2.76v0"></path>
        <path class="cls-3" d="M433.32,20.38a2.07,2.07,0,0,1-1.73,2.36h-.06a2.08,2.08,0,1,1,1.79-2.33"></path>
        <path class="cls-5" d="M414.24,17.54l-5.37-38.65,24.74-3.43L435-30.33l-26,3.61a3.24,3.24,0,0,0-2.85,3.59l0,.13,6.71,48.3a3.24,3.24,0,0,0,3.57,2.87l.14,0,4-.56,2.82-11.37-9.17,1.27Z"></path>
        <path class="cls-7" d="M428.22,8.32h-.11L417.74,4.07c-.11,0-.12-.09-.14-.2L416-7.33a.38.38,0,0,1,.08-.23h.32l10.32,4.27c.11,0,.12.09.14.2l1.55,11.2a.38.38,0,0,1-.08.23h-.16"></path>
        <path class="cls-8" d="M430.89,7.95h-.11c-.11,0-.12-.09-.14-.2L429.11-3.32a.38.38,0,0,1,.08-.23L438-10.47h.32c.11,0,.12.09.14.2L440,.77a.38.38,0,0,1-.08.23l-8.71,6.92h-.27"></path>
      </g>
      <g id="AppService">
        <path class="cls-3" d="M139.66,62.68l-18.25,2.53L118.9,47.13l3.8-.53a10,10,0,0,1-1.18-3.54v-.25l-6.93,1,3.59,25.85L144.09,66,142,50.65l-3.8.53,1.59,11.49Z"></path>
        <path class="cls-3" d="M162.92,41l3.29-.46,2.53,18.25L150.5,61.34l-1.61-11.57-3.8.53,2.12,15.29L173.06,62l-3.58-25.77-8.11,1.13a7.37,7.37,0,0,1,1.52,3.49Z"></path>
        <path class="cls-3" d="M117.38,36.15,114.86,18l18.25-2.53L134.57,26a11.26,11.26,0,0,1,3.56-2.3l-1.75-12.59L110.53,14.7l3.58,25.77,7.43-1a9.32,9.32,0,0,1,1.93-4.06l-6.09.76Z"></path>
        <path class="cls-3" d="M145.08,22.31,143.92,14l18.25-2.53,2.53,18.25-8,1.11a13.29,13.29,0,0,1,1.11,3.63v.08L169,32.94,165.44,7.09l-25.93,3.6,1.67,12a4.82,4.82,0,0,0,.83-.2C143,22.43,144,22.29,145.08,22.31Z"></path>
        <path class="cls-3" d="M159.83,41.1a4.09,4.09,0,0,0-4.61-3.49h0l-.59.08a10.34,10.34,0,0,0,0-2.93,11,11,0,0,0-12.41-9.38A10.83,10.83,0,0,0,133,34.23,7.49,7.49,0,1,0,132.6,49h0l23.91-3.32h0a4,4,0,0,0,3.32-4.58h0"></path>
        <path class="cls-10" d="M136.75,48.53a6.73,6.73,0,0,1-2.45-3.36,7.42,7.42,0,0,1,4.24-9.6l.1,0a4.87,4.87,0,0,1,2.44-.42,11.11,11.11,0,0,1,4.78-9.62,10.47,10.47,0,0,0-3.38-.13,10.83,10.83,0,0,0-9.19,8.85A7.49,7.49,0,1,0,132.85,49h0l3.89-.54Z"></path>
      </g>
      <g id="AppService-2">
        <path class="cls-3" d="M521.5,9.67,503.26,12.2,500.75-5.88l3.8-.53a10,10,0,0,1-1.18-3.54v-.25l-6.93,1L500,16.61,525.93,13,523.8-2.36l-3.8.53,1.59,11.49Z"></path>
        <path class="cls-3" d="M544.76-12l3.29-.46L550.59,5.8,532.34,8.33,530.73-3.24l-3.8.53L529,12.58,554.91,9l-3.58-25.77-8.11,1.13a7.37,7.37,0,0,1,1.52,3.49Z"></path>
      </g>
      <g id="Web-2">
        <path class="cls-3" d="M176.32,168.52A27.67,27.67,0,1,1,137,129.64a27.08,27.08,0,0,1,15.88-8,27.63,27.63,0,0,1,23.49,46.83"></path>
        <path class="cls-4" d="M169,152.28a5.83,5.83,0,0,0,8.24.11l.11-.11.28-.36c2.87,1.5,4.9,2.47,6,3.07a19.29,19.29,0,0,0,.43-2.39c-1.22-.59-2.78-1.62-5.2-3.08a6.48,6.48,0,0,0-1.54-5.59,5.89,5.89,0,0,0-7.78-.49c-3.06-2.13-6.55-4.57-10.29-7.31,9.32-6.77,16.55-7,16.55-7a26.09,26.09,0,0,0-4.5-3.5,29.83,29.83,0,0,0-17.84,6h0q-4.31-3.47-8.84-7.4c-1.17.6-2.27,1.24-3.42,1.94a55.73,55.73,0,0,0,8.77,8.44h0a44.53,44.53,0,0,0-6.64,7.65,5.11,5.11,0,0,0-.71,1.13,8,8,0,0,0-4.43.94,19.75,19.75,0,0,1-3.51-11.61,24.75,24.75,0,0,0-2.48,4,17.45,17.45,0,0,0,2.66,10.92,8.55,8.55,0,0,0,1.4,10.12l.73.55a45.7,45.7,0,0,0-.32,9.81c.26.29.3.61.67.94a32.94,32.94,0,0,0,5.19,3.78,30.34,30.34,0,0,1,.13-12.77,8,8,0,0,0,3.74-1.17c.73.55,1.61,1,2.44,1.56a45.42,45.42,0,0,0,8.69,3.95,5.33,5.33,0,0,0,1.65,3.68,5.5,5.5,0,0,0,7.78,0l0,0a5.84,5.84,0,0,0,1-1.5,45.79,45.79,0,0,0,10.91-.38c.43-.06,2-3,2.92-4.8a30.14,30.14,0,0,1-13.6,1,4.15,4.15,0,0,0-1.31-2,5.42,5.42,0,0,0-7.41-.22,53.54,53.54,0,0,1-8.14-3.92c-.59-.35-1.12-.6-1.71-1a8.24,8.24,0,0,0-.83-8.3l.87-1.15a56.71,56.71,0,0,1,6.33-6.79l-.24-.18.24.18h0c3.85,2.72,7.89,5.2,11.78,7.43A5.18,5.18,0,0,0,169,152.28Z"></path>
      </g>
      <g id="API-2">
        <path class="cls-4" d="M227.58,161a2.22,2.22,0,0,0,2.49,1.88l50.54-7a2.22,2.22,0,0,0,1.88-2.49L277.7,118.9l-54.91,7.62Z"></path>
        <path class="cls-6" d="M270.23,113.59a2.31,2.31,0,0,0-4.58.64l3.23,23.24-4.48.62a13.93,13.93,0,0,0-4.74-6.73,13.54,13.54,0,0,0-10.32-2.7,13.94,13.94,0,0,0-9.19,5.41,2.48,2.48,0,0,0,.46,3.31,2.37,2.37,0,0,0,3.31-.46,9.15,9.15,0,0,1,6.13-3.57,9.72,9.72,0,0,1,6.87,1.76,9.26,9.26,0,0,1-4.33,16.58,9.72,9.72,0,0,1-6.87-1.76,2.37,2.37,0,0,0-3.31.46,2.48,2.48,0,0,0,.46,3.31,13.54,13.54,0,0,0,10.32,2.7,13.94,13.94,0,0,0,9.19-5.41,13.66,13.66,0,0,0,2.77-8.26l6.72-.93a2.26,2.26,0,0,0,2-2.48l0-.13-3.55-25.59Z"></path>
        <path class="cls-6" d="M250.41,136.77a5.61,5.61,0,0,0-4.51,3.89L236.35,142l-3.23-23.24a2.26,2.26,0,0,0-2.48-2l-.13,0a2.31,2.31,0,0,0-1.87,2.6l3.55,25.54a2.26,2.26,0,0,0,2.48,2l.13,0,11.84-1.64a5.52,5.52,0,0,0,10.13-3.74A5.74,5.74,0,0,0,250.41,136.77Z"></path>
        <path class="cls-3" d="M274.09,108.92l-50.54,7a2.25,2.25,0,0,0-1.88,2.49l1.16,8.37,54.91-7.62-1.16-8.37a2.25,2.25,0,0,0-2.49-1.88"></path>
        <path class="cls-9" d="M223.55,115.94a2.25,2.25,0,0,0-1.88,2.49l1.12,8,.5,3.63,4.28,30.81a2.22,2.22,0,0,0,2.49,1.88l2.4-.33,36.78-52.92-45.68,6.4Z"></path>
      </g>
      <g id="Mobile-3">
        <path class="cls-3" d="M369.55,144.17a3.24,3.24,0,0,1-2.65,3.74l-.14,0-30.81,4.28a3.24,3.24,0,0,1-3.69-2.71l0-.14-6.71-48.3a3.24,3.24,0,0,1,2.65-3.74l.14,0L359.13,93a3.24,3.24,0,0,1,3.69,2.71l0,.14Z"></path>
        <rect class="cls-4" x="330.74" y="100.49" width="32.83" height="39.02" transform="translate(-13.2 48.85) rotate(-7.9)"></rect>
        <path class="cls-4" d="M353.74,144.24a3.18,3.18,0,1,1-3.59-2.76,3.18,3.18,0,0,1,3.59,2.76v0"></path>
        <path class="cls-3" d="M352.68,144.39a2.07,2.07,0,0,1-1.73,2.36h-.06a2.1,2.1,0,0,1-2.37-1.79h0a2.1,2.1,0,1,1,4.16-.58h0"></path>
        <path class="cls-5" d="M333.59,141.55l-5.37-38.65L353,99.47l1.37-5.79-26,3.61a3.24,3.24,0,0,0-2.81,3.62l0,.14,6.71,48.3a3.24,3.24,0,0,0,3.57,2.87l.14,0,4-.56,2.82-11.37-9.17,1.27Z"></path>
        <path class="cls-6" d="M349.7,97.48a.74.74,0,0,1-.62.85h0l-9.49,1.32a.75.75,0,1,1-.21-1.49l9.44-1.31a.7.7,0,0,1,.9.64"></path>
        <path class="cls-6" d="M349.7,97.48a.74.74,0,0,1-.62.85h0l-9.49,1.32a.75.75,0,1,1-.21-1.49l9.44-1.31a.7.7,0,0,1,.9.64"></path>
        <path class="cls-6" d="M347.08,118.54H347l-10.32-4.27c-.11,0-.12-.09-.14-.2a.38.38,0,0,1,.08-.23L345.4,107h.32L356,111.27c.11,0,.12.09.14.2s0,.21-.08.23l-8.67,6.8h-.32"></path>
        <path class="cls-7" d="M347.58,132.33h-.11l-10.37-4.27c-.11,0-.12-.09-.14-.2l-1.55-11.2a.38.38,0,0,1,.08-.23h.32l10.32,4.27c.11,0,.12.09.14.2l1.55,11.2a.38.38,0,0,1-.08.23h-.16"></path>
        <path class="cls-8" d="M350.25,132h-.11c-.11,0-.12-.09-.14-.2l-1.54-11.09a.38.38,0,0,1,.08-.23l8.77-6.92h.32c.11,0,.12.09.14.2l1.54,11.09a.38.38,0,0,1-.08.23L350.52,132h-.27"></path>
      </g>
      <g id="AppService-3">
        <path class="cls-3" d="M59,186.69l-18.25,2.53-2.51-18.08,3.8-.53a10,10,0,0,1-1.18-3.54v-.25l-6.93,1,3.59,25.85L63.45,190l-2.13-15.37-3.8.53,1.59,11.49Z"></path>
        <path class="cls-3" d="M82.28,165l3.29-.46,2.53,18.25-18.25,2.53-1.61-11.57-3.8.53,2.12,15.29L92.42,186l-3.58-25.77-8.11,1.13a7.37,7.37,0,0,1,1.52,3.49Z"></path>
        <path class="cls-3" d="M36.74,160.16,34.22,142l18.25-2.53L53.93,150a11.26,11.26,0,0,1,3.56-2.3l-1.75-12.59L29.89,138.7l3.58,25.77,7.43-1a9.32,9.32,0,0,1,1.93-4.06l-6.09.76Z"></path>
        <path class="cls-3" d="M64.44,146.33,63.28,138l18.25-2.53,2.53,18.25-8,1.11a13.29,13.29,0,0,1,1.11,3.63v.08L88.39,157,84.8,131.1l-25.93,3.6,1.67,12a4.82,4.82,0,0,0,.83-.2C62.39,146.44,63.4,146.3,64.44,146.33Z"></path>
        <path class="cls-3" d="M79.19,165.12a4.09,4.09,0,0,0-4.61-3.49h0l-.59.08a10.34,10.34,0,0,0,0-2.93,11,11,0,0,0-12.41-9.38,10.83,10.83,0,0,0-9.19,8.85A7.49,7.49,0,1,0,52,173h0l23.91-3.32h0a4,4,0,0,0,3.32-4.58h0"></path>
        <path class="cls-10" d="M56.11,172.54a6.73,6.73,0,0,1-2.45-3.36,7.42,7.42,0,0,1,4.22-9.61l.12,0a4.87,4.87,0,0,1,2.44-.42,11.11,11.11,0,0,1,4.78-9.62,10.47,10.47,0,0,0-3.38-.13,10.83,10.83,0,0,0-9.19,8.85A7.49,7.49,0,1,0,52.21,173h0l3.89-.54Z"></path>
      </g>
      <g id="Web-3">
        <path class="cls-3" d="M558.16,115.51a27.67,27.67,0,1,1-39.37-38.88,27.08,27.08,0,0,1,15.88-8,27.63,27.63,0,0,1,23.49,46.83"></path>
        <path class="cls-4" d="M550.8,99.27a5.83,5.83,0,0,0,8.24.11l.11-.11.28-.36c2.87,1.5,4.9,2.47,6,3.07a19.3,19.3,0,0,0,.43-2.39c-1.22-.59-2.78-1.62-5.2-3.08a6.48,6.48,0,0,0-1.54-5.59,5.89,5.89,0,0,0-7.78-.49c-3.06-2.13-6.55-4.57-10.29-7.31,9.32-6.77,16.55-7,16.55-7a26.09,26.09,0,0,0-4.5-3.5,29.83,29.83,0,0,0-17.84,6h0q-4.31-3.47-8.84-7.4c-1.17.6-2.27,1.24-3.42,1.94a55.73,55.73,0,0,0,8.77,8.44h0a44.53,44.53,0,0,0-6.64,7.65,5.11,5.11,0,0,0-.71,1.13,8,8,0,0,0-4.43.94,19.75,19.75,0,0,1-3.51-11.61,24.75,24.75,0,0,0-2.48,4,17.45,17.45,0,0,0,2.66,10.92,8.55,8.55,0,0,0,1.4,10.12l.73.55a45.7,45.7,0,0,0-.32,9.81c.26.29.3.61.67.94a32.94,32.94,0,0,0,5.19,3.78,30.34,30.34,0,0,1,.13-12.77,8,8,0,0,0,3.74-1.17c.73.55,1.61,1,2.44,1.56a45.42,45.42,0,0,0,8.69,3.95A5.33,5.33,0,0,0,541,115a5.5,5.5,0,0,0,7.78,0l0,0a5.84,5.84,0,0,0,1-1.5,45.79,45.79,0,0,0,10.91-.38c.43-.06,2-3,2.92-4.8a30.14,30.14,0,0,1-13.6,1,4.15,4.15,0,0,0-1.31-2,5.42,5.42,0,0,0-7.41-.22,53.54,53.54,0,0,1-8.14-3.92c-.59-.35-1.12-.6-1.71-1a8.24,8.24,0,0,0-.83-8.3l.87-1.15a56.71,56.71,0,0,1,6.33-6.79l-.24-.18.24.18h0c3.85,2.72,7.89,5.2,11.78,7.43A5.18,5.18,0,0,0,550.8,99.27Z"></path>
      </g>
      <g id="API-3">
        <path class="cls-4" d="M609.42,108a2.22,2.22,0,0,0,2.49,1.88l50.54-7a2.22,2.22,0,0,0,1.88-2.49L659.54,65.9l-54.91,7.62Z"></path>
        <path class="cls-6" d="M652.07,60.58a2.31,2.31,0,0,0-4.58.64h0l3.23,23.24-4.48.62a13.93,13.93,0,0,0-4.74-6.73,13.54,13.54,0,0,0-10.32-2.7A13.94,13.94,0,0,0,622,81.06a2.48,2.48,0,0,0,.46,3.31,2.37,2.37,0,0,0,3.31-.46,9.15,9.15,0,0,1,6.13-3.57,9.72,9.72,0,0,1,6.87,1.76,9.26,9.26,0,0,1-4.33,16.58,9.72,9.72,0,0,1-6.87-1.76,2.37,2.37,0,0,0-3.31.46,2.48,2.48,0,0,0,.46,3.31,13.54,13.54,0,0,0,10.32,2.7A13.94,13.94,0,0,0,644.22,98,13.66,13.66,0,0,0,647,89.7l6.72-.93a2.26,2.26,0,0,0,2-2.48s0-.09,0-.13l-3.55-25.59Z"></path>
        <path class="cls-6" d="M632.25,83.76a5.61,5.61,0,0,0-4.51,3.89L618.19,89,615,65.73a2.26,2.26,0,0,0-2.48-2l-.13,0a2.31,2.31,0,0,0-1.87,2.6L614,91.89a2.26,2.26,0,0,0,2.48,2l.13,0,11.84-1.64a5.52,5.52,0,0,0,10.13-3.74A5.74,5.74,0,0,0,632.25,83.76Z"></path>
        <path class="cls-3" d="M655.93,55.91l-50.54,7a2.25,2.25,0,0,0-1.88,2.49l1.16,8.37,54.91-7.62-1.16-8.37a2.25,2.25,0,0,0-2.49-1.88"></path>
        <path class="cls-9" d="M605.39,62.93a2.25,2.25,0,0,0-1.88,2.49l1.12,8,.5,3.63,4.28,30.81a2.22,2.22,0,0,0,2.49,1.88l2.4-.33,36.78-52.92-45.68,6.4Z"></path>
      </g>
      <g id="Mobile-4">
        <path class="cls-3" d="M751.39,91.16a3.24,3.24,0,0,1-2.65,3.74l-.14,0L717.79,99.2a3.24,3.24,0,0,1-3.69-2.71l0-.14L707.36,48A3.24,3.24,0,0,1,710,44.26l.14,0L741,40a3.24,3.24,0,0,1,3.69,2.71l0,.14Z"></path>
        <rect class="cls-4" x="712.59" y="47.5" width="32.83" height="39.02" transform="matrix(0.99, -0.14, 0.14, 0.99, -2.29, 100.83)"></rect>
        <path class="cls-4" d="M735.59,91.23A3.18,3.18,0,1,1,732,88.47a3.18,3.18,0,0,1,3.59,2.76v0"></path>
        <path class="cls-3" d="M734.52,91.38a2.07,2.07,0,0,1-1.73,2.36h-.06a2.08,2.08,0,1,1,1.79-2.33"></path>
        <path class="cls-5" d="M715.43,88.54l-5.37-38.65,24.74-3.43,1.37-5.79-26,3.61a3.24,3.24,0,0,0-2.83,3.61l0,.11,6.71,48.3a3.24,3.24,0,0,0,3.57,2.87l.14,0,4-.56,2.82-11.37-9.17,1.27Z"></path>
        <path class="cls-6" d="M731.54,44.47a.74.74,0,0,1-.62.85h0l-9.49,1.32a.75.75,0,1,1-.21-1.49l9.44-1.31a.7.7,0,0,1,.9.64"></path>
        <path class="cls-6" d="M731.54,44.47a.74.74,0,0,1-.62.85h0l-9.49,1.32a.75.75,0,1,1-.21-1.49l9.44-1.31a.7.7,0,0,1,.9.64"></path>
        <path class="cls-6" d="M728.92,65.53h-.11l-10.32-4.27c-.11,0-.12-.09-.14-.2a.38.38,0,0,1,.08-.23L727.22,54h.32l10.32,4.27c.11,0,.12.09.14.2s0,.21-.08.23l-8.67,6.8h-.32"></path>
        <path class="cls-7" d="M729.42,79.32h-.11l-10.37-4.27c-.11,0-.12-.09-.14-.2l-1.55-11.2a.38.38,0,0,1,.08-.23h.32L728,67.68c.11,0,.12.09.14.2l1.55,11.2a.38.38,0,0,1-.08.23h-.16"></path>
        <path class="cls-8" d="M732.09,79H732c-.11,0-.12-.09-.14-.2L730.3,67.68a.38.38,0,0,1,.08-.23l8.77-6.92h.32c.11,0,.12.09.14.2l1.54,11.09a.38.38,0,0,1-.08.23L732.36,79h-.27"></path>
      </g>
      <g id="AppService-4">
        <path class="cls-3" d="M440.86,133.68l-18.25,2.53-2.51-18.08,3.8-.53a10,10,0,0,1-1.18-3.54v-.25l-6.93,1,3.59,25.85,25.93-3.6-2.13-15.37-3.8.53L441,133.71Z"></path>
        <path class="cls-3" d="M464.12,112l3.29-.46,2.53,18.25-18.25,2.53-1.61-11.57-3.8.53,2.12,15.29L474.26,133l-3.58-25.77-8.11,1.13a7.37,7.37,0,0,1,1.52,3.49Z"></path>
        <path class="cls-3" d="M418.58,107.15,416.06,89l18.25-2.53L435.77,97a11.26,11.26,0,0,1,3.56-2.3l-1.75-12.59L411.73,85.7l3.58,25.77,7.43-1a9.32,9.32,0,0,1,1.93-4.06l-6.09.76Z"></path>
        <path class="cls-3" d="M446.28,93.32,445.12,85l18.25-2.53,2.53,18.25-8,1.11a13.29,13.29,0,0,1,1.11,3.63v.08L470.25,104l-3.59-25.85-25.93,3.6,1.67,12a4.82,4.82,0,0,0,.83-.2A23.55,23.55,0,0,1,446.28,93.32Z"></path>
        <path class="cls-3" d="M461,112.11a4.09,4.09,0,0,0-4.61-3.49h0l-.59.08a10.34,10.34,0,0,0,0-2.93,11,11,0,0,0-12.41-9.38,10.83,10.83,0,0,0-9.19,8.85A7.49,7.49,0,1,0,433.8,120h0l23.91-3.32h0A4,4,0,0,0,461,112.1h0"></path>
        <path class="cls-10" d="M438,119.53a6.73,6.73,0,0,1-2.45-3.36,7.42,7.42,0,0,1,4.24-9.6l.1,0a4.87,4.87,0,0,1,2.44-.42,11.11,11.11,0,0,1,4.78-9.62,10.47,10.47,0,0,0-3.38-.13,10.83,10.83,0,0,0-9.19,8.85A7.49,7.49,0,1,0,434,120h0l3.89-.54Z"></path>
      </g>
      <g id="Web-4">
        <path class="cls-3" d="M940,62.5a27.67,27.67,0,1,1-39.37-38.88,27.08,27.08,0,0,1,15.88-8A27.63,27.63,0,0,1,940,62.5"></path>
        <path class="cls-4" d="M932.64,46.26a5.83,5.83,0,0,0,8.24.11l.11-.11.28-.36c2.87,1.5,4.9,2.47,6,3.07a19.3,19.3,0,0,0,.43-2.39c-1.22-.59-2.78-1.62-5.2-3.08a6.48,6.48,0,0,0-1.5-5.61,5.89,5.89,0,0,0-7.78-.49c-3.06-2.13-6.55-4.57-10.29-7.31,9.32-6.77,16.55-7,16.55-7a26.09,26.09,0,0,0-4.5-3.5,29.83,29.83,0,0,0-17.84,6h0q-4.31-3.47-8.84-7.4c-1.17.6-2.27,1.24-3.42,1.94a55.73,55.73,0,0,0,8.77,8.44h0A44.53,44.53,0,0,0,907,36.15a5.11,5.11,0,0,0-.71,1.13,8,8,0,0,0-4.43.94,19.75,19.75,0,0,1-3.51-11.61,24.75,24.75,0,0,0-2.48,4,17.45,17.45,0,0,0,2.66,10.92,8.55,8.55,0,0,0,1.4,10.12l.73.55a45.7,45.7,0,0,0-.32,9.81c.26.29.3.61.67.94a32.94,32.94,0,0,0,5.19,3.78A30.34,30.34,0,0,1,906.31,54,8,8,0,0,0,910,52.83c.73.55,1.61,1,2.44,1.56a45.42,45.42,0,0,0,8.69,4A5.33,5.33,0,0,0,922.84,62a5.5,5.5,0,0,0,7.78,0l0,0a5.84,5.84,0,0,0,1-1.5,45.79,45.79,0,0,0,10.91-.38c.43-.06,2-3,2.92-4.8a30.14,30.14,0,0,1-13.6,1,4.15,4.15,0,0,0-1.31-2,5.42,5.42,0,0,0-7.41-.22,53.54,53.54,0,0,1-8.16-4c-.59-.35-1.12-.6-1.71-1a8.24,8.24,0,0,0-.83-8.3l.87-1.15a56.71,56.71,0,0,1,6.33-6.79l-.24-.18.24.18h0c3.85,2.72,7.89,5.2,11.78,7.43A5.18,5.18,0,0,0,932.64,46.26Z"></path>
      </g>
      <g id="API-4">
        <path class="cls-4" d="M991.26,55a2.22,2.22,0,0,0,2.49,1.88l50.54-7a2.22,2.22,0,0,0,1.88-2.49l-4.79-34.49-54.91,7.62Z"></path>
        <path class="cls-6" d="M1033.91,7.57a2.31,2.31,0,1,0-4.58.64h0l3.23,23.24-4.48.62a13.93,13.93,0,0,0-4.74-6.73,13.54,13.54,0,0,0-10.32-2.7,13.94,13.94,0,0,0-9.19,5.41,2.48,2.48,0,0,0,.46,3.31,2.37,2.37,0,0,0,3.31-.46,9.15,9.15,0,0,1,6.13-3.57,9.72,9.72,0,0,1,6.87,1.76,9.26,9.26,0,0,1-4.33,16.58,9.72,9.72,0,0,1-6.87-1.76,2.37,2.37,0,0,0-3.31.46,2.48,2.48,0,0,0,.46,3.31,13.54,13.54,0,0,0,10.32,2.7,13.94,13.94,0,0,0,9.19-5.41,13.66,13.66,0,0,0,2.77-8.26l6.72-.93a2.26,2.26,0,0,0,2-2.48s0-.09,0-.13L1034,7.56Z"></path>
        <path class="cls-6" d="M1014.09,30.75a5.61,5.61,0,0,0-4.51,3.89L1000,36l-3.23-23.24a2.26,2.26,0,0,0-2.48-2l-.13,0a2.31,2.31,0,0,0-1.87,2.6l3.55,25.54a2.26,2.26,0,0,0,2.48,2l.13,0,11.84-1.64a5.52,5.52,0,0,0,10.13-3.74A5.74,5.74,0,0,0,1014.09,30.75Z"></path>
        <path class="cls-3" d="M1037.77,2.9l-50.54,7a2.25,2.25,0,0,0-1.88,2.49l1.16,8.37,54.91-7.62-1.16-8.37a2.25,2.25,0,0,0-2.49-1.88"></path>
        <path class="cls-9" d="M987.23,9.92a2.25,2.25,0,0,0-1.88,2.49l1.12,8L987,24l4.28,30.81a2.22,2.22,0,0,0,2.49,1.88l2.4-.33,36.78-52.92-45.68,6.4Z"></path>
      </g>
      <g id="Mobile-5">
        <path class="cls-3" d="M1133.23,38.15a3.24,3.24,0,0,1-2.65,3.74l-.14,0-30.81,4.28a3.24,3.24,0,0,1-3.69-2.71l0-.14L1089.21-5a3.24,3.24,0,0,1,2.68-3.71l.11,0L1122.81-13a3.24,3.24,0,0,1,3.69,2.71l0,.14Z"></path>
        <rect class="cls-4" x="1094.43" y="-5.49" width="32.83" height="39.02" transform="matrix(0.99, -0.14, 0.14, 0.99, 8.62, 152.81)"></rect>
        <path class="cls-4" d="M1117.43,38.22a3.18,3.18,0,1,1-3.59-2.76,3.18,3.18,0,0,1,3.59,2.76v0"></path>
        <path class="cls-3" d="M1116.36,38.37a2.07,2.07,0,0,1-1.73,2.36h-.06A2.1,2.1,0,0,1,1112.2,39h0a2.1,2.1,0,0,1,4.16-.58"></path>
        <path class="cls-5" d="M1097.27,35.53,1091.9-3.12l24.74-3.43,1.37-5.79-26,3.61a3.24,3.24,0,0,0-2.82,3.61l0,.12,6.71,48.3a3.24,3.24,0,0,0,3.57,2.87l.14,0,4-.56,2.82-11.37-9.17,1.27Z"></path>
        <path class="cls-6" d="M1110.76,12.52h-.11l-10.32-4.27c-.11,0-.12-.09-.14-.2a.38.38,0,0,1,.08-.23L1109.06,1h.32l10.32,4.27c.11,0,.12.09.14.2s0,.21-.08.23l-8.67,6.8h-.32"></path>
        <path class="cls-7" d="M1111.26,26.31h-.11L1100.78,22c-.11,0-.12-.09-.14-.2l-1.55-11.2a.38.38,0,0,1,.08-.23h.32l10.32,4.27c.11,0,.12.09.14.2l1.55,11.2a.38.38,0,0,1-.08.23h-.16"></path>
        <path class="cls-8" d="M1113.93,25.94h-.11c-.11,0-.12-.09-.14-.2l-1.54-11.09a.38.38,0,0,1,.08-.23l8.78-6.9h.32c.11,0,.12.09.14.2l1.54,11a.38.38,0,0,1-.08.23l-8.71,6.92h-.27"></path>
      </g>
      <g id="AppService-5">
        <path class="cls-3" d="M822.7,80.67,804.45,83.2l-2.51-18.08,3.8-.53A10,10,0,0,1,804.56,61V60.8l-6.93,1,3.59,25.85L827.13,84,825,68.64l-3.8.53,1.59,11.49Z"></path>
        <path class="cls-3" d="M846,59l3.29-.46,2.53,18.25-18.25,2.53L832,67.75l-3.8.53,2.12,15.29L856.1,80l-3.58-25.77-8.11,1.13a7.37,7.37,0,0,1,1.52,3.49Z"></path>
        <path class="cls-3" d="M800.42,54.14,797.9,36l18.25-2.53L817.61,44a11.26,11.26,0,0,1,3.56-2.3l-1.75-12.59L793.57,32.7l3.58,25.77,7.43-1a9.32,9.32,0,0,1,1.93-4.06l-6.09.76Z"></path>
        <path class="cls-3" d="M828.12,40.31,827,31.94l18.25-2.53,2.53,18.25-8,1.11a13.29,13.29,0,0,1,1.11,3.63v.08l11.24-1.56-3.59-25.85-25.93,3.6,1.67,12a4.82,4.82,0,0,0,.83-.2C826.07,40.42,827.08,40.28,828.12,40.31Z"></path>
        <path class="cls-3" d="M842.87,59.1a4.09,4.09,0,0,0-4.61-3.49h0l-.59.08a10.34,10.34,0,0,0,0-2.93,11,11,0,0,0-12.41-9.38,10.83,10.83,0,0,0-9.19,8.85A7.49,7.49,0,1,0,815.64,67h0l23.91-3.32h0a4,4,0,0,0,3.32-4.58h0"></path>
        <path class="cls-10" d="M819.79,66.52a6.73,6.73,0,0,1-2.45-3.36,7.42,7.42,0,0,1,4.24-9.6l.1,0a4.87,4.87,0,0,1,2.44-.42,11.11,11.11,0,0,1,4.78-9.62,10.47,10.47,0,0,0-3.38-.13,10.83,10.83,0,0,0-9.19,8.85,7.49,7.49,0,1,0-.44,14.8h0l3.89-.54Z"></path>
      </g>
      <g id="Web-5">
        <path class="cls-3" d="M1321.84,9.49a27.48,27.48,0,0,1-15.87,8,27.81,27.81,0,0,1-23.32-7.72,27.63,27.63,0,0,1-.26-39.07l.09-.09a27.08,27.08,0,0,1,15.88-8,27.81,27.81,0,0,1,23.32,7.72,27.68,27.68,0,0,1,.16,39.11"></path>
        <path class="cls-4" d="M1314.49-6.75a5.83,5.83,0,0,0,8.24.11l.11-.11.28-.36c2.87,1.5,4.9,2.47,6,3.07a19.3,19.3,0,0,0,.43-2.39c-1.22-.59-2.78-1.62-5.2-3.08a6.48,6.48,0,0,0-1.54-5.59,5.89,5.89,0,0,0-7.78-.49c-3.06-2.13-6.55-4.57-10.29-7.31,9.32-6.77,16.55-7,16.55-7a26.09,26.09,0,0,0-4.5-3.5,29.83,29.83,0,0,0-17.84,6h0q-4.31-3.47-8.84-7.4c-1.17.6-2.27,1.24-3.42,1.94a55.73,55.73,0,0,0,8.77,8.44h0a44.53,44.53,0,0,0-6.64,7.65,5.11,5.11,0,0,0-.71,1.13,8,8,0,0,0-4.43.94,19.75,19.75,0,0,1-3.51-11.61,24.76,24.76,0,0,0-2.48,4,17.45,17.45,0,0,0,2.66,10.92,8.55,8.55,0,0,0,1.4,10.12l.73.55a45.7,45.7,0,0,0-.32,9.81c.26.29.3.61.67.94a32.94,32.94,0,0,0,5.19,3.78A30.34,30.34,0,0,1,1288.15,1a8,8,0,0,0,3.74-1.17c.73.55,1.61,1,2.44,1.56A45.42,45.42,0,0,0,1303,5.32,5.33,5.33,0,0,0,1304.68,9a5.5,5.5,0,0,0,7.78,0l0,0a5.84,5.84,0,0,0,1-1.5,45.79,45.79,0,0,0,10.91-.38c.43-.06,2-3,2.92-4.8a30.14,30.14,0,0,1-13.6,1,4.15,4.15,0,0,0-1.31-2A5.42,5.42,0,0,0,1305,1a53.54,53.54,0,0,1-8.14-3.92c-.59-.35-1.12-.6-1.71-1a8.24,8.24,0,0,0-.83-8.3l.87-1.15a56.71,56.71,0,0,1,6.33-6.79l-.24-.18.24.18h0c3.85,2.72,7.89,5.2,11.78,7.43A5.18,5.18,0,0,0,1314.49-6.75Z"></path>
      </g>
      <g id="AppService-6">
        <path class="cls-3" d="M1204.54,27.66l-18.25,2.53-2.51-18.08,3.8-.53A10,10,0,0,1,1186.41,8V7.75l-6.93,1L1183,34.6l26-3.6-2.13-15.37-3.8.53,1.59,11.49Z"></path>
        <path class="cls-3" d="M1227.8,6l3.29-.46,2.53,18.25-18.25,2.53-1.61-11.57-3.8.53,2.12,15.29L1237.94,27l-3.58-25.77-8.11,1.13a7.37,7.37,0,0,1,1.52,3.49Z"></path>
        <path class="cls-3" d="M1182.26,1.13,1179.74-17,1198-19.57,1199.45-9a11.26,11.26,0,0,1,3.56-2.3l-1.75-12.59-25.85,3.59L1179,5.46l7.43-1A9.32,9.32,0,0,1,1188.36.4l-6.09.76Z"></path>
        <path class="cls-3" d="M1224.71,6.09a4.09,4.09,0,0,0-4.61-3.49h0l-.59.08a10.34,10.34,0,0,0,0-2.93,11,11,0,0,0-12.41-9.38,10.83,10.83,0,0,0-9.19,8.85,7.51,7.51,0,0,0-2.51-.08,7.44,7.44,0,0,0-6.33,8.41v0a7.44,7.44,0,0,0,8.34,6.42h0l23.91-3.32h0a4,4,0,0,0,3.32-4.58h0"></path>
        <path class="cls-10" d="M1201.63,13.51a6.73,6.73,0,0,1-2.45-3.36,7.42,7.42,0,0,1,4.23-9.6l.12,0A4.87,4.87,0,0,1,1206,.08a11.11,11.11,0,0,1,4.78-9.62,10.47,10.47,0,0,0-3.38-.13,10.83,10.83,0,0,0-9.19,8.85,7.51,7.51,0,0,0-2.51-.08,7.44,7.44,0,0,0-6.33,8.41v0a7.44,7.44,0,0,0,8.34,6.42h0l3.89-.54Z"></path>
      </g>
      <g id="Web-6">
        <path class="cls-3" d="M86.88,293.75a27.67,27.67,0,1,1-39.37-38.88,27.08,27.08,0,0,1,15.88-8A27.63,27.63,0,0,1,86.88,293.7"></path>
        <path class="cls-4" d="M79.52,277.52a5.83,5.83,0,0,0,8.24.11l.11-.11.28-.36c2.87,1.5,4.9,2.47,6,3.07a19.29,19.29,0,0,0,.43-2.39c-1.22-.59-2.78-1.62-5.2-3.08a6.48,6.48,0,0,0-1.54-5.59,5.89,5.89,0,0,0-7.78-.49c-3.06-2.13-6.55-4.57-10.29-7.31,9.32-6.77,16.55-7,16.55-7a26.09,26.09,0,0,0-4.5-3.5,29.83,29.83,0,0,0-17.84,6h0q-4.31-3.47-8.84-7.4c-1.17.6-2.27,1.24-3.42,1.94a55.73,55.73,0,0,0,8.77,8.44h0a44.53,44.53,0,0,0-6.64,7.65,5.11,5.11,0,0,0-.71,1.13,8,8,0,0,0-4.43.94A19.75,19.75,0,0,1,45.2,258a24.75,24.75,0,0,0-2.48,4,17.45,17.45,0,0,0,2.66,10.92A8.55,8.55,0,0,0,46.78,283l.73.55a45.7,45.7,0,0,0-.32,9.81c.26.29.3.61.67.94a32.94,32.94,0,0,0,5.2,3.7,30.34,30.34,0,0,1,.13-12.77,8,8,0,0,0,3.74-1.17c.73.55,1.61,1,2.44,1.56a45.42,45.42,0,0,0,8.69,4,5.33,5.33,0,0,0,1.65,3.68,5.5,5.5,0,0,0,7.78,0l0,0a5.84,5.84,0,0,0,1-1.5,45.79,45.79,0,0,0,10.91-.38c.43-.06,2-3,2.92-4.8a30.14,30.14,0,0,1-13.6,1,4.15,4.15,0,0,0-1.31-2A5.42,5.42,0,0,0,70,285.3a53.54,53.54,0,0,1-8.14-3.92c-.59-.35-1.12-.6-1.71-1a8.24,8.24,0,0,0-.83-8.3l.87-1.15a56.71,56.71,0,0,1,6.33-6.79l-.24-.18.24.18h0c3.85,2.72,7.89,5.2,11.78,7.43A5.18,5.18,0,0,0,79.52,277.52Z"></path>
      </g>
      <g id="API-6">
        <path class="cls-4" d="M138.14,286.2a2.22,2.22,0,0,0,2.49,1.88l50.54-7a2.22,2.22,0,0,0,1.88-2.49l-4.79-34.49-54.91,7.62Z"></path>
        <path class="cls-6" d="M180.79,238.82a2.31,2.31,0,0,0-4.58.64l3.23,23.24-4.48.62a13.93,13.93,0,0,0-4.74-6.73,13.54,13.54,0,0,0-10.32-2.7,13.94,13.94,0,0,0-9.19,5.41,2.48,2.48,0,0,0,.46,3.31,2.37,2.37,0,0,0,3.31-.46,9.15,9.15,0,0,1,6.13-3.57,9.72,9.72,0,0,1,6.87,1.76,9.26,9.26,0,0,1-4.33,16.58,9.72,9.72,0,0,1-6.87-1.76,2.37,2.37,0,0,0-3.31.46,2.48,2.48,0,0,0,.46,3.31,13.54,13.54,0,0,0,10.32,2.7,13.94,13.94,0,0,0,9.19-5.41,13.66,13.66,0,0,0,2.77-8.26l6.72-.93a2.26,2.26,0,0,0,2-2.48l0-.13-3.55-25.59Z"></path>
        <path class="cls-6" d="M161,262a5.61,5.61,0,0,0-4.51,3.89L147,267.21,143.69,244a2.26,2.26,0,0,0-2.48-2l-.13,0a2.31,2.31,0,0,0-1.87,2.6l3.55,25.54a2.26,2.26,0,0,0,2.48,2l.13,0,11.84-1.64a5.52,5.52,0,0,0,10.13-3.74A5.74,5.74,0,0,0,161,262Z"></path>
        <path class="cls-3" d="M184.65,234.16l-50.54,7a2.25,2.25,0,0,0-1.88,2.49l1.16,8.37,54.91-7.62-1.16-8.4a2.25,2.25,0,0,0-2.49-1.88"></path>
        <path class="cls-9" d="M134.11,241.17a2.25,2.25,0,0,0-1.88,2.49l1.12,8,.5,3.63,4.28,30.81a2.22,2.22,0,0,0,2.49,1.88l2.4-.33,36.78-52.92-45.68,6.4Z"></path>
      </g>
      <g id="Mobile-6">
        <path class="cls-3" d="M280.11,269.4a3.24,3.24,0,0,1-2.65,3.74l-.14,0-30.81,4.28a3.24,3.24,0,0,1-3.69-2.71l0-.14-6.71-48.3a3.24,3.24,0,0,1,2.65-3.74l.14,0,30.81-4.28a3.24,3.24,0,0,1,3.69,2.71l0,.14Z"></path>
        <rect class="cls-4" x="241.3" y="225.71" width="32.83" height="39.02" transform="translate(-31.26 37.75) rotate(-7.9)"></rect>
        <path class="cls-4" d="M264.31,269.48a3.18,3.18,0,1,1-3.59-2.76,3.18,3.18,0,0,1,3.59,2.76v0"></path>
        <path class="cls-3" d="M263.24,269.63a2.07,2.07,0,0,1-1.73,2.36h-.06a2.1,2.1,0,0,1-2.37-1.79h0a2.1,2.1,0,1,1,4.16-.58h0"></path>
        <path class="cls-5" d="M244.15,266.79l-5.37-38.65,24.74-3.43,1.37-5.79-26,3.61a3.24,3.24,0,0,0-2.81,3.62l0,.14,6.71,48.3a3.24,3.24,0,0,0,3.57,2.87l.14,0,4-.56,2.82-11.37-9.17,1.27Z"></path>
        <path class="cls-6" d="M260.26,222.71a.74.74,0,0,1-.62.85h0l-9.49,1.32a.75.75,0,1,1-.21-1.49l9.44-1.31a.7.7,0,0,1,.9.64"></path>
        <path class="cls-6" d="M260.26,222.71a.74.74,0,0,1-.62.85h0l-9.49,1.32a.75.75,0,1,1-.21-1.49l9.44-1.31a.7.7,0,0,1,.9.64"></path>
        <path class="cls-6" d="M257.64,243.78h-.11l-10.32-4.27c-.11,0-.12-.09-.14-.2a.38.38,0,0,1,.08-.23l8.78-6.82h.32l10.32,4.27c.11,0,.12.09.14.2s0,.21-.08.23l-8.67,6.8h-.32"></path>
        <path class="cls-7" d="M258.14,257.56H258l-10.37-4.27c-.11,0-.12-.09-.14-.2L246,241.92a.38.38,0,0,1,.08-.23h.32L256.72,246c.11,0,.12.09.14.2l1.55,11.2a.38.38,0,0,1-.08.23h-.16"></path>
        <path class="cls-8" d="M260.81,257.19h-.11c-.11,0-.12-.09-.14-.2L259,245.92a.38.38,0,0,1,.08-.23l8.77-6.92h.32c.11,0,.12.09.14.2l1.55,11a.38.38,0,0,1-.08.23l-8.71,6.92h-.27"></path>
      </g>
      <g id="AppService-7">
        <path class="cls-3" d="M-7.16,290.27l3.29-.46,2.53,18.25-18.25,2.53L-21.19,299l-3.8.53,2.12,15.29L3,311.24-.6,285.48l-8.1,1.12a7.37,7.37,0,0,1,1.52,3.49Z"></path>
      </g>
      <g id="Web-7">
        <path class="cls-3" d="M468.72,240.74a27.67,27.67,0,1,1-39.37-38.88,27.08,27.08,0,0,1,15.88-8,27.63,27.63,0,0,1,23.49,46.83"></path>
        <path class="cls-4" d="M461.36,224.51a5.83,5.83,0,0,0,8.24.11l.11-.11.28-.36c2.87,1.5,4.9,2.47,6,3.07a19.29,19.29,0,0,0,.43-2.39c-1.22-.59-2.78-1.62-5.2-3.08a6.48,6.48,0,0,0-1.54-5.59,5.89,5.89,0,0,0-7.78-.49c-3.06-2.13-6.55-4.57-10.29-7.31,9.32-6.77,16.55-7,16.55-7a26.09,26.09,0,0,0-4.5-3.5,29.83,29.83,0,0,0-17.84,6h0q-4.31-3.47-8.84-7.4c-1.17.6-2.27,1.24-3.42,1.94a55.73,55.73,0,0,0,8.77,8.44h0a44.53,44.53,0,0,0-6.64,7.65,5.11,5.11,0,0,0-.71,1.13,8,8,0,0,0-4.43.94A19.75,19.75,0,0,1,427,205a24.75,24.75,0,0,0-2.48,4,17.45,17.45,0,0,0,2.66,10.92,8.55,8.55,0,0,0,1.4,10.12l.73.55a45.7,45.7,0,0,0-.32,9.81c.26.29.3.61.67.94a32.94,32.94,0,0,0,5.2,3.71,30.34,30.34,0,0,1,.13-12.77,8,8,0,0,0,3.74-1.17c.73.55,1.61,1,2.44,1.56a45.42,45.42,0,0,0,8.69,3.95,5.33,5.33,0,0,0,1.65,3.68,5.5,5.5,0,0,0,7.78,0l0,0a5.84,5.84,0,0,0,1-1.5,45.79,45.79,0,0,0,10.91-.38c.43-.06,2-3,2.92-4.8a30.14,30.14,0,0,1-13.6,1,4.15,4.15,0,0,0-1.31-2,5.42,5.42,0,0,0-7.41-.22,53.54,53.54,0,0,1-8.14-3.92c-.59-.35-1.12-.6-1.71-1a8.24,8.24,0,0,0-.83-8.3l.87-1.15a56.71,56.71,0,0,1,6.33-6.79l-.24-.18.24.18h0c3.85,2.72,7.89,5.2,11.78,7.43A5.18,5.18,0,0,0,461.36,224.51Z"></path>
      </g>
      <g id="API-7">
        <path class="cls-4" d="M520,233.19a2.22,2.22,0,0,0,2.49,1.88l50.54-7a2.22,2.22,0,0,0,1.88-2.49l-4.79-34.49-54.91,7.62Z"></path>
        <path class="cls-6" d="M562.63,185.81a2.31,2.31,0,1,0-4.58.64h0l3.23,23.24-4.48.62a13.93,13.93,0,0,0-4.74-6.73,13.54,13.54,0,0,0-10.32-2.7,13.94,13.94,0,0,0-9.19,5.41,2.48,2.48,0,0,0,.46,3.31,2.37,2.37,0,0,0,3.31-.46,9.15,9.15,0,0,1,6.13-3.57,9.72,9.72,0,0,1,6.87,1.76A9.26,9.26,0,0,1,545,223.91a9.72,9.72,0,0,1-6.87-1.76,2.37,2.37,0,0,0-3.31.46,2.48,2.48,0,0,0,.46,3.31,13.54,13.54,0,0,0,10.32,2.7,13.94,13.94,0,0,0,9.19-5.41,13.66,13.66,0,0,0,2.77-8.26l6.72-.93a2.26,2.26,0,0,0,2-2.48s0-.09,0-.13l-3.55-25.59Z"></path>
        <path class="cls-6" d="M542.81,209a5.61,5.61,0,0,0-4.51,3.89l-9.54,1.32L525.53,191a2.26,2.26,0,0,0-2.48-2l-.13,0a2.31,2.31,0,0,0-1.87,2.6l3.55,25.54a2.26,2.26,0,0,0,2.48,2l.13,0L539,217.45a5.52,5.52,0,0,0,10.13-3.74A5.74,5.74,0,0,0,542.81,209Z"></path>
        <path class="cls-3" d="M566.49,181.15l-50.54,7a2.25,2.25,0,0,0-1.88,2.49l1.16,8.37,54.91-7.62L569,183a2.25,2.25,0,0,0-2.49-1.88"></path>
        <path class="cls-9" d="M516,188.16a2.25,2.25,0,0,0-1.88,2.49l1.12,8,.5,3.63L520,233.14a2.22,2.22,0,0,0,2.49,1.88l2.4-.33,36.78-52.92Z"></path>
      </g>
      <g id="Mobile-7">
        <path class="cls-3" d="M662,216.39a3.24,3.24,0,0,1-2.65,3.74l-.14,0-30.81,4.28a3.24,3.24,0,0,1-3.69-2.71l0-.14-6.71-48.3a3.24,3.24,0,0,1,2.65-3.74l.14,0,30.81-4.28a3.24,3.24,0,0,1,3.69,2.71l0,.14Z"></path>
        <rect class="cls-4" x="623.15" y="172.72" width="32.83" height="39.02" transform="translate(-20.35 89.73) rotate(-7.9)"></rect>
        <path class="cls-4" d="M646.15,216.47a3.18,3.18,0,1,1-3.59-2.76,3.18,3.18,0,0,1,3.59,2.76v0"></path>
        <path class="cls-3" d="M645.08,216.62a2.07,2.07,0,0,1-1.73,2.36h-.06a2.1,2.1,0,0,1-2.37-1.79h0a2.1,2.1,0,1,1,4.16-.58"></path>
        <path class="cls-5" d="M626,213.78l-5.37-38.65,24.74-3.43,1.37-5.79-26,3.61a3.24,3.24,0,0,0-2.81,3.62l0,.14,6.71,48.3a3.24,3.24,0,0,0,3.57,2.87l.14,0,4-.56,2.82-11.37Z"></path>
        <path class="cls-6" d="M642.1,169.7a.74.74,0,0,1-.62.85h0L632,171.87a.75.75,0,1,1-.21-1.49l9.44-1.31a.7.7,0,0,1,.9.64"></path>
        <path class="cls-6" d="M642.1,169.7a.74.74,0,0,1-.62.85h0L632,171.87a.75.75,0,1,1-.21-1.49l9.44-1.31a.7.7,0,0,1,.9.64"></path>
        <path class="cls-6" d="M639.48,190.77h-.11L629,186.5c-.11,0-.12-.09-.14-.2a.38.38,0,0,1,.08-.23l8.78-6.82h.32l10.32,4.27c.11,0,.12.09.14.2s0,.21-.08.23l-8.67,6.8h-.32"></path>
        <path class="cls-7" d="M640,204.55h-.11L629.5,200.3c-.11,0-.12-.09-.14-.2l-1.55-11.2a.38.38,0,0,1,.08-.23h.32l10.32,4.27c.11,0,.12.09.14.2l1.55,11.2a.38.38,0,0,1-.08.23H640"></path>
        <path class="cls-8" d="M642.65,204.18h-.11c-.11,0-.12-.09-.14-.2l-1.54-11.09a.38.38,0,0,1,.08-.23l8.77-6.92H650c.11,0,.12.09.14.2L651.7,197a.38.38,0,0,1-.08.23l-8.71,6.92h-.27"></path>
      </g>
      <g id="AppService-8">
        <path class="cls-3" d="M351.42,258.91l-18.25,2.53-2.51-18.08,3.8-.53a10,10,0,0,1-1.18-3.54V239l-6.93,1,3.59,25.85,25.93-3.6-2.13-15.37-3.8.53,1.59,11.49Z"></path>
        <path class="cls-3" d="M374.68,237.26l3.29-.46,2.54,18.2-18.25,2.53L360.65,246l-3.8.53L359,261.82l25.85-3.59-3.58-25.77-8.11,1.13a7.37,7.37,0,0,1,1.52,3.49Z"></path>
        <path class="cls-3" d="M329.14,232.38l-2.52-18.16,18.25-2.53,1.47,10.56a11.26,11.26,0,0,1,3.56-2.3l-1.75-12.59-25.85,3.59,3.58,25.77,7.43-1a9.32,9.32,0,0,1,1.93-4.06l-6.09.76Z"></path>
        <path class="cls-3" d="M356.84,218.55l-1.16-8.36,18.25-2.53,2.53,18.25-8,1.11a13.29,13.29,0,0,1,1.11,3.63v.08l11.24-1.56-3.59-25.85-25.93,3.6,1.67,12a4.82,4.82,0,0,0,.83-.2C354.79,218.66,355.8,218.52,356.84,218.55Z"></path>
        <path class="cls-3" d="M371.59,237.34a4.09,4.09,0,0,0-4.61-3.49h0l-.59.08a10.34,10.34,0,0,0,0-2.93A11,11,0,0,0,354,221.61a10.83,10.83,0,0,0-9.19,8.85,7.49,7.49,0,1,0-.44,14.79h0l23.91-3.32h0a4,4,0,0,0,3.32-4.58h0"></path>
        <path class="cls-10" d="M348.51,244.76a6.73,6.73,0,0,1-2.45-3.36,7.42,7.42,0,0,1,4.24-9.6l.1,0a4.87,4.87,0,0,1,2.44-.42,11.11,11.11,0,0,1,4.78-9.62,10.47,10.47,0,0,0-3.38-.13,10.83,10.83,0,0,0-9.19,8.85,7.49,7.49,0,1,0-.44,14.79h0l3.89-.54Z"></path>
      </g>
      <g id="Web-8">
        <path class="cls-3" d="M850.56,187.73a27.67,27.67,0,1,1-39.37-38.88,27.08,27.08,0,0,1,15.88-8,27.63,27.63,0,0,1,23.49,46.83"></path>
        <path class="cls-4" d="M843.21,171.5a5.83,5.83,0,0,0,8.24.11l.11-.11.28-.36c2.87,1.5,4.9,2.47,6,3.07a19.3,19.3,0,0,0,.43-2.39c-1.22-.59-2.78-1.62-5.2-3.08a6.48,6.48,0,0,0-1.54-5.59,5.89,5.89,0,0,0-7.78-.49c-3.06-2.13-6.55-4.57-10.29-7.31,9.32-6.77,16.55-7,16.55-7a26.09,26.09,0,0,0-4.5-3.5,29.83,29.83,0,0,0-17.84,6h0q-4.31-3.47-8.84-7.4c-1.17.6-2.27,1.24-3.42,1.94a55.73,55.73,0,0,0,8.77,8.44h0a44.53,44.53,0,0,0-6.64,7.65,5.11,5.11,0,0,0-.71,1.13,8,8,0,0,0-4.43.94,19.75,19.75,0,0,1-3.51-11.61,24.75,24.75,0,0,0-2.48,4,17.45,17.45,0,0,0,2.66,10.92,8.55,8.55,0,0,0,1.4,10.12l.73.55a45.7,45.7,0,0,0-.32,9.81c.26.29.3.61.67.94a32.94,32.94,0,0,0,5.19,3.78,30.34,30.34,0,0,1,.13-12.77,8,8,0,0,0,3.74-1.17c.73.55,1.61,1,2.44,1.56a45.42,45.42,0,0,0,8.69,3.95,5.33,5.33,0,0,0,1.65,3.68,5.5,5.5,0,0,0,7.78,0l0,0a5.84,5.84,0,0,0,1-1.5,45.79,45.79,0,0,0,10.91-.38c.43-.06,2-3,2.92-4.8a30.14,30.14,0,0,1-13.6,1,4.15,4.15,0,0,0-1.31-2,5.42,5.42,0,0,0-7.41-.22,53.54,53.54,0,0,1-8.14-3.92c-.59-.35-1.12-.6-1.71-1a8.24,8.24,0,0,0-.83-8.3l.87-1.15a56.71,56.71,0,0,1,6.33-6.79L830,158l.24.18h0c3.85,2.72,7.89,5.2,11.78,7.43A5.18,5.18,0,0,0,843.21,171.5Z"></path>
      </g>
      <g id="API-8">
        <path class="cls-4" d="M901.82,180.18a2.22,2.22,0,0,0,2.49,1.88l50.54-7a2.22,2.22,0,0,0,1.88-2.49l-4.79-34.49L897,145.69Z"></path>
        <path class="cls-6" d="M944.47,132.8a2.31,2.31,0,1,0-4.58.64h0l3.23,23.24-4.48.62a13.93,13.93,0,0,0-4.74-6.73,13.54,13.54,0,0,0-10.32-2.7,13.94,13.94,0,0,0-9.19,5.41,2.48,2.48,0,0,0,.46,3.31,2.37,2.37,0,0,0,3.31-.46,9.15,9.15,0,0,1,6.13-3.57,9.72,9.72,0,0,1,6.87,1.76,9.26,9.26,0,0,1-4.33,16.58,9.72,9.72,0,0,1-6.87-1.76,2.37,2.37,0,0,0-3.31.46,2.48,2.48,0,0,0,.46,3.31,13.54,13.54,0,0,0,10.32,2.7,13.94,13.94,0,0,0,9.19-5.41,13.66,13.66,0,0,0,2.77-8.26l6.72-.93a2.26,2.26,0,0,0,2-2.48s0-.09,0-.13l-3.55-25.59Z"></path>
        <path class="cls-6" d="M924.65,156a5.61,5.61,0,0,0-4.51,3.89l-9.54,1.32L907.37,138a2.26,2.26,0,0,0-2.48-2l-.13,0a2.31,2.31,0,0,0-1.87,2.6l3.55,25.54a2.26,2.26,0,0,0,2.48,2l.13,0,11.84-1.64A5.52,5.52,0,0,0,931,160.7,5.74,5.74,0,0,0,924.65,156Z"></path>
        <path class="cls-3" d="M948.33,128.14l-50.54,7a2.25,2.25,0,0,0-1.88,2.49l1.16,8.37L952,138.39,950.82,130a2.25,2.25,0,0,0-2.49-1.88"></path>
        <path class="cls-9" d="M897.79,135.15a2.25,2.25,0,0,0-1.88,2.49l1.12,8,.5,3.63,4.28,30.81a2.22,2.22,0,0,0,2.48,1.92h0l2.4-.33,36.78-52.92-45.68,6.4Z"></path>
      </g>
      <g id="Mobile-8">
        <path class="cls-3" d="M1043.79,163.38a3.24,3.24,0,0,1-2.65,3.74l-.14,0-30.81,4.28a3.24,3.24,0,0,1-3.69-2.71l0-.14-6.71-48.3a3.24,3.24,0,0,1,2.65-3.74l.14,0,30.81-4.28a3.24,3.24,0,0,1,3.69,2.71l0,.14Z"></path>
        <rect class="cls-4" x="1005" y="119.74" width="32.83" height="39.02" transform="matrix(0.99, -0.14, 0.14, 0.99, -9.45, 141.71)"></rect>
        <path class="cls-4" d="M1028,163.46a3.18,3.18,0,1,1-3.59-2.76,3.18,3.18,0,0,1,3.59,2.76v0"></path>
        <path class="cls-3" d="M1026.92,163.6a2.07,2.07,0,0,1-1.73,2.36h-.06a2.1,2.1,0,0,1-2.37-1.79h0a2.1,2.1,0,0,1,4.16-.58"></path>
        <path class="cls-5" d="M1007.83,160.77l-5.37-38.65,24.74-3.43,1.37-5.79-26,3.61a3.24,3.24,0,0,0-2.81,3.62l0,.14,6.71,48.3a3.24,3.24,0,0,0,3.57,2.87l.14,0,4-.56,2.82-11.37-9.17,1.27Z"></path>
        <path class="cls-6" d="M1023.94,116.69a.74.74,0,0,1-.62.85h0l-9.49,1.32a.75.75,0,1,1-.21-1.49h0l9.44-1.31a.7.7,0,0,1,.9.64"></path>
        <path class="cls-6" d="M1023.94,116.69a.74.74,0,0,1-.62.85h0l-9.49,1.32a.75.75,0,1,1-.21-1.49h0l9.44-1.31a.7.7,0,0,1,.9.64"></path>
        <path class="cls-6" d="M1021.32,137.76h-.11l-10.32-4.27c-.11,0-.12-.09-.14-.2a.38.38,0,0,1,.08-.23l8.78-6.82h.32l10.32,4.27c.11,0,.12.09.14.2s0,.21-.08.23l-8.67,6.8h-.32"></path>
        <path class="cls-7" d="M1021.82,151.54h-.11l-10.37-4.27c-.11,0-.12-.09-.14-.2l-1.55-11.2a.38.38,0,0,1,.08-.23h.32l10.32,4.27c.11,0,.12.09.14.2l1.55,11.2a.38.38,0,0,1-.08.23h-.16"></path>
        <path class="cls-8" d="M1024.49,151.17h-.11c-.11,0-.12-.09-.14-.2l-1.54-11.09a.38.38,0,0,1,.08-.23l8.77-6.92h.32c.11,0,.12.09.14.2l1.54,11.09a.38.38,0,0,1-.08.23l-8.71,6.92h-.27"></path>
      </g>
      <g id="AppService-9">
        <path class="cls-3" d="M733.26,205.9,715,208.43l-2.51-18.08,3.8-.53a10,10,0,0,1-1.18-3.54V186l-6.93,1,3.59,25.85,25.93-3.6-2.13-15.37-3.8.53,1.59,11.49Z"></path>
        <path class="cls-3" d="M756.52,184.25l3.29-.46L762.35,202l-18.25,2.53L742.49,193l-3.8.53,2.12,15.29,25.85-3.59-3.58-25.77L755,180.58a7.37,7.37,0,0,1,1.52,3.49Z"></path>
        <path class="cls-3" d="M711,179.37l-2.52-18.16,18.25-2.53,1.47,10.56a11.26,11.26,0,0,1,3.56-2.3L730,154.35l-25.85,3.59,3.58,25.77,7.43-1a9.32,9.32,0,0,1,1.93-4.06l-6.09.76Z"></path>
        <path class="cls-3" d="M738.68,165.54l-1.16-8.36,18.25-2.53,2.53,18.25-8,1.11a13.29,13.29,0,0,1,1.11,3.63v.08l11.24-1.56L759,150.31l-25.93,3.6,1.67,12a4.82,4.82,0,0,0,.83-.2C736.63,165.65,737.64,165.51,738.68,165.54Z"></path>
        <path class="cls-3" d="M753.43,184.33a4.09,4.09,0,0,0-4.61-3.49h0l-.59.08a10.34,10.34,0,0,0,0-2.93,11,11,0,0,0-12.41-9.38,10.83,10.83,0,0,0-9.19,8.85,7.49,7.49,0,1,0-.44,14.79h0l23.91-3.32h0a4,4,0,0,0,3.32-4.58h0"></path>
        <path class="cls-10" d="M730.35,191.75a6.73,6.73,0,0,1-2.45-3.36,7.42,7.42,0,0,1,4.24-9.6l.1,0a4.87,4.87,0,0,1,2.44-.42,11.11,11.11,0,0,1,4.78-9.62,10.47,10.47,0,0,0-3.38-.13,10.83,10.83,0,0,0-9.19,8.85,7.49,7.49,0,1,0-.44,14.79h0l3.89-.54Z"></path>
      </g>
      <g id="Web-9">
        <path class="cls-3" d="M1232.4,134.72A27.67,27.67,0,1,1,1193,95.85a27.08,27.08,0,0,1,15.88-8,27.63,27.63,0,0,1,23.49,46.83"></path>
        <path class="cls-4" d="M1225,118.49a5.83,5.83,0,0,0,8.24.11l.11-.11.28-.36c2.87,1.5,4.9,2.47,6,3.07a19.3,19.3,0,0,0,.43-2.39c-1.22-.59-2.78-1.62-5.2-3.08a6.48,6.48,0,0,0-1.54-5.59,5.89,5.89,0,0,0-7.78-.49c-3.06-2.13-6.55-4.57-10.29-7.31,9.32-6.77,16.55-7,16.55-7a26.09,26.09,0,0,0-4.5-3.5,29.83,29.83,0,0,0-17.84,6h0q-4.31-3.47-8.84-7.4c-1.17.6-2.27,1.24-3.42,1.94a55.73,55.73,0,0,0,8.77,8.44h0a44.53,44.53,0,0,0-6.64,7.65,5.11,5.11,0,0,0-.71,1.13,8,8,0,0,0-4.43.94,19.75,19.75,0,0,1-3.51-11.61,24.76,24.76,0,0,0-2.48,4,17.45,17.45,0,0,0,2.66,10.92,8.55,8.55,0,0,0,1.4,10.12l.73.55a45.7,45.7,0,0,0-.32,9.81c.26.29.3.61.67.94a32.94,32.94,0,0,0,5.19,3.78,30.34,30.34,0,0,1,.13-12.77,8,8,0,0,0,3.74-1.17c.73.55,1.61,1,2.44,1.56a45.42,45.42,0,0,0,8.69,3.95,5.33,5.33,0,0,0,1.65,3.68,5.5,5.5,0,0,0,7.78,0l0,0a5.84,5.84,0,0,0,1-1.5,45.79,45.79,0,0,0,10.91-.38c.43-.06,2-3,2.92-4.8a30.14,30.14,0,0,1-13.6,1,4.15,4.15,0,0,0-1.31-2,5.42,5.42,0,0,0-7.41-.22,53.54,53.54,0,0,1-8.14-3.92c-.59-.35-1.12-.6-1.71-1a8.24,8.24,0,0,0-.83-8.3l.87-1.15a56.71,56.71,0,0,1,6.33-6.79l-.24-.18.24.18h0c3.85,2.72,7.89,5.2,11.78,7.43A5.18,5.18,0,0,0,1225,118.49Z"></path>
      </g>
      <g id="API-9">
        <path class="cls-4" d="M1283.66,127.17a2.22,2.22,0,0,0,2.49,1.88l50.54-7a2.22,2.22,0,0,0,1.88-2.49l-4.79-34.49-54.91,7.62Z"></path>
        <path class="cls-6" d="M1326.31,79.79a2.31,2.31,0,1,0-4.58.64l3.23,23.24-4.48.62a13.93,13.93,0,0,0-4.74-6.73,13.54,13.54,0,0,0-10.32-2.7,13.94,13.94,0,0,0-9.19,5.41,2.48,2.48,0,0,0,.46,3.31,2.37,2.37,0,0,0,3.31-.46,9.15,9.15,0,0,1,6.13-3.57,9.72,9.72,0,0,1,6.87,1.76,9.26,9.26,0,0,1-4.33,16.58,9.72,9.72,0,0,1-6.87-1.76,2.37,2.37,0,0,0-3.31.46,2.48,2.48,0,0,0,.46,3.31,13.54,13.54,0,0,0,10.32,2.7,13.94,13.94,0,0,0,9.19-5.41,13.66,13.66,0,0,0,2.77-8.26L1328,108a2.26,2.26,0,0,0,2-2.48s0-.09,0-.13L1326.4,79.8Z"></path>
        <path class="cls-6" d="M1306.49,103a5.61,5.61,0,0,0-4.51,3.89l-9.54,1.32L1289.21,85a2.26,2.26,0,0,0-2.48-2l-.13,0a2.31,2.31,0,0,0-1.87,2.6l3.55,25.54a2.26,2.26,0,0,0,2.48,2l.13,0,11.84-1.64a5.52,5.52,0,0,0,10.13-3.74A5.74,5.74,0,0,0,1306.49,103Z"></path>
        <path class="cls-3" d="M1330.17,75.13l-50.54,7a2.25,2.25,0,0,0-1.88,2.49l1.16,8.37,54.91-7.62L1332.66,77a2.25,2.25,0,0,0-2.49-1.88"></path>
        <path class="cls-9" d="M1279.64,82.14a2.25,2.25,0,0,0-1.88,2.49l1.12,8,.5,3.63,4.28,30.81a2.22,2.22,0,0,0,2.49,1.88l2.4-.33,36.78-52.92-45.68,6.4Z"></path>
      </g>
      <g id="AppService-10">
        <path class="cls-3" d="M1115.1,152.89l-18.25,2.53-2.51-18.08,3.8-.53a10,10,0,0,1-1.18-3.54V133l-6.93,1,3.59,25.85,25.93-3.6-2.13-15.37-3.8.53,1.59,11.49Z"></path>
        <path class="cls-3" d="M1138.36,131.23l3.29-.46,2.53,18.25-18.25,2.53-1.6-11.55-3.8.53,2.12,15.29,25.85-3.59-3.58-25.77-8.11,1.13a7.37,7.37,0,0,1,1.52,3.49Z"></path>
        <path class="cls-3" d="M1092.82,126.36l-2.52-18.16,18.25-2.53,1.47,10.56a11.26,11.26,0,0,1,3.56-2.3l-1.75-12.59L1086,104.93l3.58,25.77,7.43-1a9.32,9.32,0,0,1,1.93-4.06l-6.09.76Z"></path>
        <path class="cls-3" d="M1120.52,112.53l-1.16-8.36,18.25-2.53,2.53,18.25-8,1.11a13.29,13.29,0,0,1,1.11,3.63v.08l11.24-1.56L1140.9,97.3,1115,100.9l1.67,12a4.82,4.82,0,0,0,.83-.2C1118.47,112.64,1119.48,112.5,1120.52,112.53Z"></path>
        <path class="cls-3" d="M1135.27,131.32a4.09,4.09,0,0,0-4.61-3.49h0l-.59.08a10.34,10.34,0,0,0,0-2.93,11,11,0,0,0-12.41-9.38,10.83,10.83,0,0,0-9.19,8.85,7.49,7.49,0,1,0-.44,14.79h0l23.91-3.32h0a4,4,0,0,0,3.32-4.58h0"></path>
        <path class="cls-10" d="M1112.19,138.74a6.73,6.73,0,0,1-2.45-3.36,7.42,7.42,0,0,1,4.24-9.6l.1,0a4.87,4.87,0,0,1,2.44-.42,11.11,11.11,0,0,1,4.78-9.62,10.47,10.47,0,0,0-3.38-.13,10.83,10.83,0,0,0-9.19,8.85,7.49,7.49,0,1,0-.44,14.79h0l3.89-.54Z"></path>
      </g>
      <g id="Mobile-10">
        <path class="cls-3" d="M589.55,339.26A3.24,3.24,0,0,1,586.9,343l-.14,0L556,347.3a3.24,3.24,0,0,1-3.69-2.71l0-.14-6.71-48.3a3.24,3.24,0,0,1,2.65-3.74l.14,0,30.81-4.28a3.24,3.24,0,0,1,3.69,2.71l0,.14Z"></path>
        <rect class="cls-4" x="550.74" y="295.58" width="32.83" height="39.02" transform="translate(-37.93 80.94) rotate(-7.9)"></rect>
        <path class="cls-5" d="M553.6,336.64,548.23,298,573,294.56l1.37-5.79-26,3.61a3.24,3.24,0,0,0-2.81,3.62l0,.14,6.71,48.3a3.24,3.24,0,0,0,3.57,2.87l.14,0,4-.56,2.82-11.37-9.17,1.27Z"></path>
        <path class="cls-6" d="M569.7,292.57a.74.74,0,0,1-.62.85h0l-9.49,1.32a.75.75,0,0,1-.21-1.49h0l9.44-1.31a.7.7,0,0,1,.9.64"></path>
        <path class="cls-6" d="M569.7,292.57a.74.74,0,0,1-.62.85h0l-9.49,1.32a.75.75,0,0,1-.21-1.49h0l9.44-1.31a.7.7,0,0,1,.9.64"></path>
      </g>
      <g id="Web-10">
        <path class="cls-3" d="M778.16,310.6a27.67,27.67,0,1,1-39.37-38.88,27.08,27.08,0,0,1,15.88-8,27.63,27.63,0,0,1,23.49,46.83"></path>
        <path class="cls-4" d="M770.81,294.37a5.83,5.83,0,0,0,8.24.11l.11-.11.28-.36c2.87,1.5,4.9,2.47,6,3.07a19.3,19.3,0,0,0,.43-2.39c-1.22-.59-2.78-1.62-5.2-3.08a6.48,6.48,0,0,0-1.54-5.59,5.89,5.89,0,0,0-7.78-.49c-3.06-2.13-6.55-4.57-10.29-7.31,9.32-6.77,16.55-7,16.55-7a26.09,26.09,0,0,0-4.5-3.5,29.83,29.83,0,0,0-17.84,6h0q-4.31-3.47-8.84-7.4c-1.17.6-2.27,1.24-3.42,1.94a55.73,55.73,0,0,0,8.77,8.44h0a44.53,44.53,0,0,0-6.64,7.65,5.11,5.11,0,0,0-.71,1.13,8,8,0,0,0-4.43.94,19.75,19.75,0,0,1-3.51-11.61,24.75,24.75,0,0,0-2.48,4,17.45,17.45,0,0,0,2.66,10.92,8.55,8.55,0,0,0,1.4,10.12l.73.55a45.7,45.7,0,0,0-.32,9.81c.26.29.3.61.67.94a32.94,32.94,0,0,0,5.19,3.78,30.34,30.34,0,0,1,.13-12.77,8,8,0,0,0,3.74-1.17c.73.55,1.61,1,2.44,1.56a45.42,45.42,0,0,0,8.69,4,5.33,5.33,0,0,0,1.65,3.68,5.5,5.5,0,0,0,7.78,0l0,0a5.84,5.84,0,0,0,1-1.5,45.79,45.79,0,0,0,10.91-.38c.43-.06,2-3,2.92-4.8a30.14,30.14,0,0,1-13.6,1,4.15,4.15,0,0,0-1.31-2,5.42,5.42,0,0,0-7.41-.22,53.54,53.54,0,0,1-8.14-3.92c-.59-.35-1.12-.6-1.71-1a8.24,8.24,0,0,0-.83-8.3l.87-1.15a56.71,56.71,0,0,1,6.33-6.79l-.24-.18.24.18h0c3.85,2.72,7.89,5.2,11.78,7.43A5.18,5.18,0,0,0,770.81,294.37Z"></path>
      </g>
      <g id="API-10">
        <path class="cls-4" d="M829.42,303a2.22,2.22,0,0,0,2.49,1.88l50.54-7a2.22,2.22,0,0,0,1.88-2.49L879.54,261l-54.91,7.62Z"></path>
        <path class="cls-6" d="M872.08,255.67a2.31,2.31,0,1,0-4.58.64h0l3.23,23.24-4.48.62a13.93,13.93,0,0,0-4.74-6.73,13.54,13.54,0,0,0-10.32-2.7,13.94,13.94,0,0,0-9.19,5.41,2.48,2.48,0,0,0,.46,3.31,2.37,2.37,0,0,0,3.31-.46,9.15,9.15,0,0,1,6.13-3.57,9.72,9.72,0,0,1,6.87,1.76,9.26,9.26,0,0,1-4.33,16.58,9.72,9.72,0,0,1-6.87-1.76,2.37,2.37,0,0,0-3.31.46,2.48,2.48,0,0,0,.46,3.31,13.54,13.54,0,0,0,10.32,2.7,13.94,13.94,0,0,0,9.19-5.41A13.66,13.66,0,0,0,867,284.8l6.72-.93a2.26,2.26,0,0,0,2-2.48l0-.13-3.55-25.59Z"></path>
        <path class="cls-6" d="M852.25,278.85a5.61,5.61,0,0,0-4.51,3.89l-9.54,1.32L835,260.82a2.26,2.26,0,0,0-2.48-2l-.13,0a2.31,2.31,0,0,0-1.87,2.6L834,287a2.26,2.26,0,0,0,2.48,2l.13,0,11.84-1.64a5.52,5.52,0,0,0,10.13-3.74A5.74,5.74,0,0,0,852.25,278.85Z"></path>
        <path class="cls-3" d="M875.94,251l-50.54,7a2.25,2.25,0,0,0-1.88,2.49l1.16,8.37,54.91-7.62-1.16-8.37a2.25,2.25,0,0,0-2.49-1.88"></path>
        <path class="cls-9" d="M825.4,258a2.25,2.25,0,0,0-1.88,2.49l1.12,8,.5,3.63L829.42,303a2.22,2.22,0,0,0,2.49,1.88l2.4-.33,36.78-52.92Z"></path>
      </g>
      <g id="Mobile-11">
        <path class="cls-3" d="M971.39,286.25a3.24,3.24,0,0,1-2.66,3.73l-.13,0-30.81,4.28a3.24,3.24,0,0,1-3.69-2.71l0-.14-6.71-48.3a3.24,3.24,0,0,1,2.65-3.74l.14,0L961,235.1a3.24,3.24,0,0,1,3.69,2.71l0,.14Z"></path>
        <rect class="cls-4" x="932.59" y="242.61" width="32.83" height="39.02" transform="translate(-27.02 132.92) rotate(-7.9)"></rect>
        <path class="cls-4" d="M955.59,286.32a3.18,3.18,0,1,1-3.59-2.76,3.18,3.18,0,0,1,3.59,2.76v0"></path>
        <path class="cls-3" d="M954.52,286.47a2.07,2.07,0,0,1-1.73,2.36h-.06a2.1,2.1,0,0,1-2.37-1.79h0a2.1,2.1,0,0,1,4.16-.58"></path>
        <path class="cls-5" d="M935.44,283.63,930.07,245l24.74-3.43,1.37-5.79-26,3.61a3.24,3.24,0,0,0-2.81,3.62l0,.14,6.71,48.3a3.24,3.24,0,0,0,3.57,2.87l.14,0,4-.56,2.82-11.37-9.17,1.27Z"></path>
        <path class="cls-6" d="M951.54,239.56a.74.74,0,0,1-.62.85h0l-9.49,1.32a.75.75,0,1,1-.21-1.49l9.44-1.31a.7.7,0,0,1,.9.64"></path>
        <path class="cls-6" d="M951.54,239.56a.74.74,0,0,1-.62.85h0l-9.49,1.32a.75.75,0,1,1-.21-1.49l9.44-1.31a.7.7,0,0,1,.9.64"></path>
        <path class="cls-6" d="M948.93,260.62h-.11l-10.32-4.27c-.11,0-.12-.09-.14-.2a.38.38,0,0,1,.08-.23l8.78-6.82h.32l10.32,4.27c.11,0,.12.09.14.2s0,.21-.08.23l-8.67,6.8h-.32"></path>
        <path class="cls-7" d="M949.43,274.41h-.11L939,270.14c-.11,0-.12-.09-.14-.2l-1.55-11.2a.38.38,0,0,1,.08-.23h.32L948,262.77c.11,0,.12.09.14.2l1.55,11.2a.38.38,0,0,1-.08.23h-.16"></path>
        <path class="cls-8" d="M952.09,274H952c-.11,0-.12-.09-.14-.2l-1.54-11.09a.38.38,0,0,1,.08-.23l8.77-6.92h.32c.11,0,.12.09.14.2l1.54,11.09a.38.38,0,0,1-.08.23L952.36,274h-.27"></path>
      </g>
      <g id="AppService-11">
        <path class="cls-3" d="M638.58,302.24l-2.52-18.16,18.25-2.53,1.47,10.56a11.26,11.26,0,0,1,3.56-2.3l-1.75-12.59-25.85,3.59,3.58,25.77,7.43-1a9.32,9.32,0,0,1,1.93-4.06l-6.09.76Z"></path>
        <path class="cls-3" d="M666.28,288.41,665.12,280l18.25-2.53,2.53,18.25-8,1.11a13.29,13.29,0,0,1,1.11,3.63v.08L690.23,299l-3.59-25.85-25.93,3.6,1.67,12a4.82,4.82,0,0,0,.83-.2C664.23,288.52,665.25,288.38,666.28,288.41Z"></path>
        <path class="cls-3" d="M681,307.2a4.09,4.09,0,0,0-4.61-3.49h0l-.59.08a10.34,10.34,0,0,0,0-2.93,11,11,0,0,0-12.41-9.38,10.83,10.83,0,0,0-9.19,8.85,7.49,7.49,0,1,0-.44,14.79h0l23.91-3.32h0a4,4,0,0,0,3.35-4.56v0"></path>
        <path class="cls-10" d="M658,314.62a6.73,6.73,0,0,1-2.45-3.36,7.42,7.42,0,0,1,4.24-9.6l.1,0a4.87,4.87,0,0,1,2.44-.42,11.11,11.11,0,0,1,4.78-9.62,10.47,10.47,0,0,0-3.38-.13,10.83,10.83,0,0,0-9.19,8.85,7.49,7.49,0,1,0-.44,14.79h0l3.89-.54Z"></path>
      </g>
      <g id="Web-11">
        <path class="cls-3" d="M1160,257.59a27.67,27.67,0,1,1-39.37-38.88,27.08,27.08,0,0,1,15.88-8A27.63,27.63,0,0,1,1160,257.59"></path>
        <path class="cls-4" d="M1152.65,241.35a5.83,5.83,0,0,0,8.24.11l.11-.11.28-.36c2.87,1.5,4.9,2.47,6,3.07a19.3,19.3,0,0,0,.43-2.39c-1.22-.59-2.78-1.62-5.2-3.08A6.48,6.48,0,0,0,1161,233a5.89,5.89,0,0,0-7.78-.49c-3.06-2.13-6.55-4.57-10.29-7.31,9.32-6.77,16.55-7,16.55-7a26.09,26.09,0,0,0-4.5-3.5,29.83,29.83,0,0,0-17.84,6h0q-4.31-3.47-8.84-7.4c-1.17.6-2.27,1.24-3.42,1.94a55.73,55.73,0,0,0,8.77,8.44h0a44.53,44.53,0,0,0-6.64,7.65,5.11,5.11,0,0,0-.71,1.13,8,8,0,0,0-4.43.94,19.75,19.75,0,0,1-3.51-11.61,24.76,24.76,0,0,0-2.48,4,17.45,17.45,0,0,0,2.66,10.92,8.55,8.55,0,0,0,1.4,10.12l.73.55a45.7,45.7,0,0,0-.32,9.81c.26.29.3.61.67.94a32.94,32.94,0,0,0,5.19,3.78,30.34,30.34,0,0,1,.13-12.77,8,8,0,0,0,3.74-1.17c.73.55,1.61,1,2.44,1.56a45.42,45.42,0,0,0,8.69,3.95,5.33,5.33,0,0,0,1.65,3.68,5.5,5.5,0,0,0,7.78,0l0,0a5.84,5.84,0,0,0,1-1.5,45.79,45.79,0,0,0,10.91-.38c.43-.06,2-3,2.92-4.8a30.14,30.14,0,0,1-13.6,1,4.15,4.15,0,0,0-1.31-2,5.42,5.42,0,0,0-7.41-.22,53.54,53.54,0,0,1-8.14-3.92c-.59-.35-1.12-.6-1.71-1a8.24,8.24,0,0,0-.83-8.3l.87-1.15a56.71,56.71,0,0,1,6.33-6.79l-.24-.18.24.18h0c3.85,2.72,7.89,5.2,11.78,7.43A5.18,5.18,0,0,0,1152.65,241.35Z"></path>
      </g>
      <g id="API-11">
        <path class="cls-4" d="M1211.26,250a2.22,2.22,0,0,0,2.49,1.88l50.54-7a2.22,2.22,0,0,0,1.88-2.49l-4.79-34.49-54.91,7.62Z"></path>
        <path class="cls-6" d="M1253.92,202.66a2.31,2.31,0,1,0-4.58.64l3.23,23.24-4.48.62a13.93,13.93,0,0,0-4.74-6.73,13.54,13.54,0,0,0-10.32-2.7,13.94,13.94,0,0,0-9.19,5.41,2.48,2.48,0,0,0,.46,3.31,2.37,2.37,0,0,0,3.31-.46,9.15,9.15,0,0,1,6.13-3.57,9.72,9.72,0,0,1,6.87,1.76,9.26,9.26,0,0,1-4.33,16.58,9.72,9.72,0,0,1-6.87-1.76,2.37,2.37,0,0,0-3.31.46,2.48,2.48,0,0,0,.46,3.31,13.54,13.54,0,0,0,10.32,2.7,13.94,13.94,0,0,0,9.19-5.41,13.66,13.66,0,0,0,2.77-8.26l6.72-.93a2.26,2.26,0,0,0,2-2.48s0-.09,0-.13L1254,202.65Z"></path>
        <path class="cls-6" d="M1234.09,225.84a5.61,5.61,0,0,0-4.51,3.89l-9.54,1.32-3.23-23.24a2.26,2.26,0,0,0-2.48-2l-.13,0a2.31,2.31,0,0,0-1.87,2.6l3.55,25.54a2.26,2.26,0,0,0,2.48,2l.13,0,11.84-1.64a5.52,5.52,0,0,0,10.13-3.74A5.74,5.74,0,0,0,1234.09,225.84Z"></path>
        <path class="cls-3" d="M1257.78,198l-50.54,7a2.25,2.25,0,0,0-1.88,2.49l1.16,8.37,54.91-7.62-1.16-8.37a2.25,2.25,0,0,0-2.49-1.88"></path>
        <path class="cls-9" d="M1207.24,205a2.25,2.25,0,0,0-1.88,2.49l1.12,8,.5,3.63,4.28,30.81a2.22,2.22,0,0,0,2.49,1.88l2.4-.33,36.78-52.92-45.68,6.4Z"></path>
      </g>
      <g id="Mobile-12">
        <path class="cls-3" d="M1353.23,233.24a3.24,3.24,0,0,1-2.65,3.74l-.14,0-30.81,4.28a3.24,3.24,0,0,1-3.69-2.71l0-.14-6.71-48.3a3.24,3.24,0,0,1,2.65-3.74l.14,0,30.81-4.28a3.24,3.24,0,0,1,3.69,2.71l0,.14Z"></path>
        <rect class="cls-4" x="1314.44" y="189.62" width="32.83" height="39.02" transform="matrix(0.99, -0.14, 0.14, 0.99, -16.11, 184.9)"></rect>
        <path class="cls-4" d="M1337.43,233.31a3.18,3.18,0,1,1-3.59-2.76,3.18,3.18,0,0,1,3.59,2.76v0"></path>
        <path class="cls-3" d="M1336.36,233.46a2.07,2.07,0,0,1-1.73,2.36h-.06a2.1,2.1,0,0,1-2.37-1.79h0a2.1,2.1,0,0,1,4.16-.58h0"></path>
        <path class="cls-5" d="M1317.28,230.62,1311.91,192l24.74-3.43,1.37-5.79-26,3.61a3.24,3.24,0,0,0-2.81,3.62l0,.14,6.71,48.3a3.24,3.24,0,0,0,3.57,2.87l.14,0,4-.56,2.82-11.37-9.17,1.27Z"></path>
        <path class="cls-6" d="M1333.38,186.55a.74.74,0,0,1-.62.85h0l-9.49,1.32a.75.75,0,0,1-.21-1.49l9.44-1.31a.7.7,0,0,1,.9.64"></path>
        <path class="cls-6" d="M1333.38,186.55a.74.74,0,0,1-.62.85h0l-9.49,1.32a.75.75,0,0,1-.21-1.49l9.44-1.31a.7.7,0,0,1,.9.64"></path>
        <path class="cls-6" d="M1330.77,207.61h-.11l-10.32-4.27c-.11,0-.12-.09-.14-.2a.38.38,0,0,1,.08-.23l8.78-6.82h.32l10.32,4.27c.11,0,.12.09.14.2s0,.21-.08.23l-8.67,6.8h-.32"></path>
        <path class="cls-7" d="M1331.27,221.4h-.11l-10.37-4.27c-.11,0-.12-.09-.14-.2l-1.55-11.2a.38.38,0,0,1,.08-.23h.32l10.32,4.27c.11,0,.12.09.14.2l1.55,11.2a.38.38,0,0,1-.08.23h-.16"></path>
        <path class="cls-8" d="M1333.93,221h-.11c-.11,0-.12-.09-.14-.2l-1.54-11.09a.38.38,0,0,1,.08-.23l8.77-6.92h.32c.11,0,.12.09.14.2l1.54,11.09a.38.38,0,0,1-.08.23L1334.2,221h-.27"></path>
      </g>
      <g id="AppService-12">
        <path class="cls-3" d="M1042.71,275.76l-18.25,2.53-2.51-18.08,3.8-.53a10,10,0,0,1-1.18-3.54v-.25l-6.93,1,3.59,25.85,25.93-3.6L1045,263.73l-3.8.53,1.59,11.49Z"></path>
        <path class="cls-3" d="M1066,254.1l3.29-.46,2.53,18.25-18.25,2.53L1052,262.85l-3.8.53,2.12,15.29,25.85-3.59-3.58-25.77-8.11,1.13a7.37,7.37,0,0,1,1.52,3.49Z"></path>
        <path class="cls-3" d="M1020.43,249.23l-2.52-18.16,18.25-2.53,1.47,10.56a11.26,11.26,0,0,1,3.56-2.3l-1.75-12.59-25.85,3.59,3.58,25.77,7.43-1a9.32,9.32,0,0,1,1.93-4.06l-6.09.76Z"></path>
        <path class="cls-3" d="M1048.13,235.4,1047,227l18.25-2.53,2.53,18.25-8,1.11a13.29,13.29,0,0,1,1.11,3.63v.08l11.24-1.56-3.59-25.85-25.93,3.6,1.67,12a4.82,4.82,0,0,0,.83-.2C1046.07,235.51,1047.09,235.37,1048.13,235.4Z"></path>
        <path class="cls-3" d="M1062.87,254.19a4.09,4.09,0,0,0-4.61-3.49h0l-.59.08a10.34,10.34,0,0,0,0-2.93,11,11,0,0,0-12.41-9.38,10.83,10.83,0,0,0-9.19,8.85,7.49,7.49,0,1,0-.44,14.79h0l23.91-3.32h0a4,4,0,0,0,3.32-4.58h0"></path>
        <path class="cls-10" d="M1039.8,261.61a6.73,6.73,0,0,1-2.45-3.36,7.42,7.42,0,0,1,4.24-9.6l.1,0a4.87,4.87,0,0,1,2.44-.42,11.11,11.11,0,0,1,4.78-9.62,10.47,10.47,0,0,0-3.38-.13,10.83,10.83,0,0,0-9.19,8.85,7.49,7.49,0,1,0-.44,14.79h0l3.89-.54Z"></path>
      </g>
      <g id="AppService-14">
        <path class="cls-3" d="M1322.72,320.08l-2.52-18.16,18.25-2.53,1.47,10.56a11.26,11.26,0,0,1,3.56-2.3l-1.75-12.59-25.85,3.59,3.58,25.77,7.43-1a9.32,9.32,0,0,1,1.93-4.06l-6.09.76Z"></path>
        <path class="cls-3" d="M1350.42,306.25l-1.16-8.36,18.25-2.53L1370,313.6l-8,1.11a13.29,13.29,0,0,1,1.11,3.63v.08l11.24-1.56L1370.78,291l-25.93,3.6,1.67,12a4.82,4.82,0,0,0,.83-.2C1348.37,306.36,1349.38,306.22,1350.42,306.25Z"></path>
      </g>
    </g>
  </g>
</svg>